<svg width="699" height="414" viewBox="0 0 699 414" fill="none" xmlns="http://www.w3.org/2000/svg">
<g clip-path="url(#clip0_7_6668)">
<circle cx="334" cy="150" r="5" fill="#0077B6"/>
<circle cx="334" cy="180" r="5" fill="#0077B6"/>
<circle cx="334" cy="210" r="5" fill="#0077B6"/>
<circle cx="334" cy="240" r="5" fill="#0077B6"/>
<circle cx="334" cy="270" r="5" fill="#0077B6"/>
<circle cx="334" cy="300" r="5" fill="#0077B6"/>
<circle cx="334" cy="330" r="5" fill="#0077B6"/>
<circle cx="334" cy="360" r="5" fill="#0077B6"/>
<circle cx="334" cy="390" r="5" fill="#0077B6"/>
<circle cx="364" cy="150" r="5" fill="#0077B6"/>
<circle cx="364" cy="180" r="5" fill="#0077B6"/>
<circle cx="364" cy="210" r="5" fill="#0077B6"/>
<circle cx="364" cy="240" r="5" fill="#0077B6"/>
<circle cx="364" cy="270" r="5" fill="#0077B6"/>
<circle cx="364" cy="300" r="5" fill="#0077B6"/>
<circle cx="364" cy="330" r="5" fill="#0077B6"/>
<circle cx="364" cy="360" r="5" fill="#0077B6"/>
<circle cx="364" cy="390" r="5" fill="#0077B6"/>
<circle cx="394" cy="150" r="5" fill="#0077B6"/>
<circle cx="394" cy="180" r="5" fill="#0077B6"/>
<circle cx="394" cy="210" r="5" fill="#0077B6"/>
<circle cx="394" cy="240" r="5" fill="#0077B6"/>
<circle cx="394" cy="270" r="5" fill="#0077B6"/>
<circle cx="394" cy="300" r="5" fill="#0077B6"/>
<circle cx="394" cy="330" r="5" fill="#0077B6"/>
<circle cx="394" cy="360" r="5" fill="#0077B6"/>
<circle cx="394" cy="390" r="5" fill="#0077B6"/>
<circle cx="424" cy="150" r="5" fill="#0077B6"/>
<circle cx="424" cy="180" r="5" fill="#0077B6"/>
<circle cx="424" cy="210" r="5" fill="#0077B6"/>
<circle cx="424" cy="240" r="5" fill="#0077B6"/>
<circle cx="424" cy="270" r="5" fill="#0077B6"/>
<circle cx="424" cy="300" r="5" fill="#0077B6"/>
<circle cx="424" cy="330" r="5" fill="#0077B6"/>
<circle cx="424" cy="360" r="5" fill="#0077B6"/>
<circle cx="424" cy="390" r="5" fill="#0077B6"/>
<circle cx="454" cy="150" r="5" fill="#0077B6"/>
<circle cx="454" cy="180" r="5" fill="#0077B6"/>
<circle cx="454" cy="210" r="5" fill="#0077B6"/>
<circle cx="454" cy="240" r="5" fill="#0077B6"/>
<circle cx="454" cy="270" r="5" fill="#0077B6"/>
<circle cx="454" cy="300" r="5" fill="#0077B6"/>
<circle cx="454" cy="330" r="5" fill="#0077B6"/>
<circle cx="454" cy="360" r="5" fill="#0077B6"/>
<circle cx="454" cy="390" r="5" fill="#0077B6"/>
<circle cx="484" cy="150" r="5" fill="#0077B6"/>
<circle cx="484" cy="180" r="5" fill="#0077B6"/>
<circle cx="484" cy="210" r="5" fill="#0077B6"/>
<circle cx="484" cy="240" r="5" fill="#0077B6"/>
<circle cx="484" cy="270" r="5" fill="#0077B6"/>
<circle cx="484" cy="300" r="5" fill="#0077B6"/>
<circle cx="484" cy="330" r="5" fill="#0077B6"/>
<circle cx="484" cy="360" r="5" fill="#0077B6"/>
<circle cx="484" cy="390" r="5" fill="#0077B6"/>
<circle cx="514" cy="150" r="5" fill="#0077B6"/>
<circle cx="514" cy="180" r="5" fill="#0077B6"/>
<circle cx="514" cy="210" r="5" fill="#0077B6"/>
<circle cx="514" cy="240" r="5" fill="#0077B6"/>
<circle cx="514" cy="270" r="5" fill="#0077B6"/>
<circle cx="514" cy="300" r="5" fill="#0077B6"/>
<circle cx="514" cy="330" r="5" fill="#0077B6"/>
<circle cx="514" cy="360" r="5" fill="#0077B6"/>
<circle cx="514" cy="390" r="5" fill="#0077B6"/>
<circle cx="544" cy="150" r="5" fill="#0077B6"/>
<circle cx="574" cy="150" r="5" fill="#0077B6"/>
<circle cx="604" cy="150" r="5" fill="#0077B6"/>
<circle cx="634" cy="150" r="5" fill="#0077B6"/>
<circle cx="664" cy="150" r="5" fill="#0077B6"/>
<circle cx="694" cy="150" r="5" fill="#0077B6"/>
<circle cx="544" cy="180" r="5" fill="#0077B6"/>
<circle cx="574" cy="180" r="5" fill="#0077B6"/>
<circle cx="604" cy="180" r="5" fill="#0077B6"/>
<circle cx="634" cy="180" r="5" fill="#0077B6"/>
<circle cx="664" cy="180" r="5" fill="#0077B6"/>
<circle cx="694" cy="180" r="5" fill="#0077B6"/>
<circle cx="544" cy="210" r="5" fill="#0077B6"/>
<circle cx="574" cy="210" r="5" fill="#0077B6"/>
<circle cx="604" cy="210" r="5" fill="#0077B6"/>
<circle cx="634" cy="210" r="5" fill="#0077B6"/>
<circle cx="664" cy="210" r="5" fill="#0077B6"/>
<circle cx="694" cy="210" r="5" fill="#0077B6"/>
<circle cx="544" cy="240" r="5" fill="#0077B6"/>
<circle cx="574" cy="240" r="5" fill="#0077B6"/>
<circle cx="604" cy="240" r="5" fill="#0077B6"/>
<circle cx="634" cy="240" r="5" fill="#0077B6"/>
<circle cx="664" cy="240" r="5" fill="#0077B6"/>
<circle cx="694" cy="240" r="5" fill="#0077B6"/>
<circle cx="544" cy="270" r="5" fill="#0077B6"/>
<circle cx="574" cy="270" r="5" fill="#0077B6"/>
<circle cx="604" cy="270" r="5" fill="#0077B6"/>
<circle cx="634" cy="270" r="5" fill="#0077B6"/>
<circle cx="664" cy="270" r="5" fill="#0077B6"/>
<circle cx="694" cy="270" r="5" fill="#0077B6"/>
<circle cx="544" cy="300" r="5" fill="#0077B6"/>
<circle cx="574" cy="300" r="5" fill="#0077B6"/>
<circle cx="604" cy="300" r="5" fill="#0077B6"/>
<circle cx="634" cy="300" r="5" fill="#0077B6"/>
<circle cx="664" cy="300" r="5" fill="#0077B6"/>
<circle cx="694" cy="300" r="5" fill="#0077B6"/>
<circle cx="544" cy="330" r="5" fill="#0077B6"/>
<circle cx="574" cy="330" r="5" fill="#0077B6"/>
<circle cx="604" cy="330" r="5" fill="#0077B6"/>
<circle cx="634" cy="330" r="5" fill="#0077B6"/>
<circle cx="664" cy="330" r="5" fill="#0077B6"/>
<circle cx="694" cy="330" r="5" fill="#0077B6"/>
<circle cx="544" cy="360" r="5" fill="#0077B6"/>
<circle cx="574" cy="360" r="5" fill="#0077B6"/>
<circle cx="604" cy="360" r="5" fill="#0077B6"/>
<circle cx="634" cy="360" r="5" fill="#0077B6"/>
<circle cx="664" cy="360" r="5" fill="#0077B6"/>
<circle cx="694" cy="360" r="5" fill="#0077B6"/>
<circle cx="544" cy="390" r="5" fill="#0077B6"/>
<circle cx="574" cy="390" r="5" fill="#0077B6"/>
<circle cx="604" cy="390" r="5" fill="#0077B6"/>
<circle cx="634" cy="390" r="5" fill="#0077B6"/>
<circle cx="664" cy="390" r="5" fill="#0077B6"/>
<circle cx="694" cy="390" r="5" fill="#0077B6"/>
</g>
<defs>
<clipPath id="clip0_7_6668">
<rect width="699" height="414" fill="white"/>
</clipPath>
</defs>
</svg>
