<?xml version="1.0" encoding="utf-8"?><svg version="1.1" id="Layer_1" xmlns="http://www.w3.org/2000/svg" xmlns:xlink="http://www.w3.org/1999/xlink" x="0px" y="0px"	 viewBox="0 0 1224 792" style="enable-background:new 0 0 1224 792;" xml:space="preserve"><style type="text/css">	.st0{opacity:0.08;}	.st1{fill:#0077b6;}</style><g class="st0">	<path class="st1" d="M664.681,489.561l40.232,10.78l9.61,35.865c-0.277,0.168-0.542,0.36-0.782,0.599		c-1.611,1.611-1.611,4.224,0,5.835s4.224,1.611,5.835,0s1.611-4.224,0-5.835c-0.863-0.863-2.011-1.248-3.141-1.187l-9.89-36.91		l-41.348-11.079c-0.532-0.144-1.082,0.173-1.225,0.707C663.831,488.87,664.148,489.418,664.681,489.561z"/>	<path class="st1" d="M911.2,585.05l-55.374-14.838l-40.537,40.537l14.578,54.404l-29.778,29.778l11.229,41.905l34.783,9.32		c-0.238,1.789,0.307,3.662,1.681,5.036c2.343,2.343,6.142,2.343,8.485,0s2.343-6.142,0-8.485c-2.343-2.343-6.142-2.343-8.485,0		c-0.461,0.461-0.804,0.988-1.083,1.539l-33.748-9.043l-10.631-39.675l29.044-29.044l40.232,10.78		c0.051,0.014,0.101,0.004,0.152,0.01l13.753,3.685l40.537-40.537L911.2,585.05z M884.903,678.73l-53.144-14.24l-14.24-53.144		l38.904-38.904l53.144,14.24l14.24,53.144L884.903,678.73z"/>	<path class="st1" d="M894.824,602.133c-0.143-0.534-0.691-0.849-1.225-0.707c-0.533,0.143-0.85,0.691-0.707,1.225l8.489,31.685		c0.119,0.447,0.523,0.741,0.965,0.741c0.086,0,0.173-0.011,0.26-0.034c0.533-0.143,0.85-0.691,0.707-1.225L894.824,602.133z"/>	<path class="st1" d="M839.945,616.838c-0.143-0.534-0.689-0.852-1.225-0.707c-0.533,0.143-0.85,0.691-0.707,1.225l8.489,31.685		c0.119,0.447,0.523,0.741,0.965,0.741c0.086,0,0.173-0.011,0.26-0.034c0.533-0.143,0.85-0.691,0.707-1.225L839.945,616.838z"/>	<path class="st1" d="M329.403,648.91c-0.536-0.145-1.082,0.173-1.225,0.707c-0.143,0.533,0.173,1.082,0.707,1.225l53.702,14.389		l14.24,53.145l-38.904,38.903l-48.054-12.875c0.302-1.842-0.244-3.796-1.664-5.216c-2.343-2.343-6.142-2.343-8.485,0		s-2.343,6.142,0,8.485s6.142,2.343,8.485,0c0.415-0.415,0.73-0.887,0.998-1.377l49.317,13.214l40.537-40.536l-14.837-55.375		L329.403,648.91z"/>	<path class="st1" d="M375.367,713.625c0.085,0,0.173-0.011,0.259-0.034c0.534-0.143,0.85-0.691,0.707-1.225l-8.49-31.685		c-0.143-0.534-0.69-0.854-1.225-0.707c-0.534,0.143-0.85,0.691-0.707,1.225l8.49,31.685		C374.521,713.331,374.925,713.625,375.367,713.625z"/>	<path class="st1" d="M476.272,631.594c-0.327,0.182-0.642,0.394-0.921,0.673c-1.611,1.611-1.611,4.224,0,5.835s4.224,1.611,5.835,0		s1.611-4.224,0-5.835c-0.823-0.823-1.907-1.22-2.986-1.202l-28.141-105.024c-0.143-0.534-0.692-0.851-1.225-0.707		c-0.534,0.143-0.85,0.691-0.707,1.225L476.272,631.594z"/>	<path class="st1" d="M749.644,698.933l-29.452,29.452l-39.675-10.631l-10.78-40.232c-0.142-0.534-0.69-0.852-1.225-0.707		c-0.533,0.143-0.85,0.691-0.707,1.225l11.079,41.348l41.905,11.229l30.269-30.269c0.391-0.391,0.391-1.023,0-1.414		S750.035,698.542,749.644,698.933z"/>	<path class="st1" d="M479.792,530.441l10.039,37.464l41.906,11.229l30.269-30.269c0.391-0.391,0.391-1.023,0-1.414		s-1.023-0.391-1.414,0l-29.452,29.452l-39.675-10.631l-9.746-36.373c0.317-0.18,0.622-0.387,0.892-0.657		c1.611-1.611,1.611-4.224,0-5.835s-4.224-1.611-5.835,0s-1.611,4.224,0,5.835C477.606,530.074,478.703,530.468,479.792,530.441z"/>	<path class="st1" d="M782.169,703.892c-2.117,2.117-2.302,5.413-0.593,7.759l-51.013,51.013l-74.831-20.051l-10.025-37.416		l-10.025-37.416l55.188-55.189c0.391-0.391,0.391-1.023,0-1.414s-1.023-0.391-1.414,0l-56.005,56.006l10.324,38.531l10.175,37.973		l0.149,0.558l77.062,20.648L783,713.056c2.339,1.625,5.57,1.406,7.655-0.679c2.343-2.343,2.343-6.142,0-8.485		C788.312,701.549,784.513,701.549,782.169,703.892z"/>	<circle class="st1" cx="870.663" cy="625.586" r="6"/>	<path class="st1" d="M529.389,653.522c2.343-2.343,2.343-6.142,0-8.485s-6.142-2.343-8.485,0c-2.101,2.101-2.302,5.364-0.636,7.707		l-62.905,62.906l-39.675-10.631l-10.631-39.675l26.631-26.631c1.585,0.951,3.666,0.756,5.032-0.611		c1.611-1.611,1.611-4.224,0-5.835s-4.224-1.611-5.835,0c-1.366,1.366-1.561,3.446-0.611,5.031l-27.447,27.448l11.229,41.905		l41.905,11.229l63.721-63.722C524.025,655.825,527.288,655.623,529.389,653.522z"/>	<path class="st1" d="M734.127,613.424c0.256,0,0.512-0.098,0.707-0.293l44.435-44.435l-20.499-76.504		c-0.143-0.534-0.689-0.85-1.225-0.707c-0.533,0.143-0.85,0.691-0.707,1.225l20.2,75.389l-43.618,43.618		c-0.391,0.391-0.391,1.023,0,1.414C733.616,613.326,733.872,613.424,734.127,613.424z"/>	<path class="st1" d="M613.372,519.096c-0.391-0.391-1.023-0.391-1.414,0l-54.784,54.784c-0.391,0.391-0.391,1.023,0,1.414		c0.195,0.195,0.451,0.293,0.707,0.293s0.512-0.098,0.707-0.293l54.784-54.784C613.762,520.12,613.762,519.487,613.372,519.096z"/>	<path class="st1" d="M596.746,700.955l-19.237-71.794l90.558-90.558c2.343,1.667,5.606,1.465,7.707-0.636		c2.343-2.343,2.343-6.142,0-8.485s-6.142-2.343-8.485,0c-2.101,2.101-2.302,5.364-0.636,7.707l-91.374,91.374l19.557,72.989		c-0.269,0.166-0.527,0.355-0.761,0.588c-1.611,1.611-1.611,4.224,0,5.835s4.224,1.611,5.835,0s1.611-4.224,0-5.835		C599.041,701.271,597.883,700.887,596.746,700.955z"/>	<path class="st1" d="M545.908,738.317c-2.056,2.056-2.306,5.231-0.754,7.562l-26.112,26.112l5.163,19.268		c0.12,0.447,0.523,0.741,0.965,0.741c0.085,0,0.173-0.011,0.259-0.034c0.534-0.143,0.85-0.691,0.707-1.225l-4.864-18.152		l25.269-25.269c2.351,1.785,5.706,1.629,7.852-0.517c2.343-2.343,2.343-6.142,0-8.485		C552.05,735.973,548.251,735.973,545.908,738.317z"/>	<circle class="st1" cx="752.192" cy="474.772" r="6"/>	<circle class="st1" cx="435.802" cy="686.658" r="4.126"/></g></svg>