<?xml version="1.0" encoding="utf-8"?><svg version="1.1" id="Layer_1" xmlns="http://www.w3.org/2000/svg" xmlns:xlink="http://www.w3.org/1999/xlink" x="0px" y="0px"	 viewBox="0 0 1224 792" style="enable-background:new 0 0 1224 792;" xml:space="preserve"><style type="text/css">	.st0{opacity:0.08;}	.st1{fill:#0077b6;}</style><g class="st0">	<path class="st1" d="M1148.425,188.562c-0.391-0.391-1.023-0.391-1.414,0l-7.181,7.181l-39.675-10.631l-10.631-39.675		l29.452-29.452c0.391-0.391,0.391-1.023,0-1.414s-1.023-0.391-1.414,0l-30.269,30.269l11.229,41.905l41.905,11.229l7.997-7.997		C1148.815,189.586,1148.815,188.953,1148.425,188.562z"/>	<path class="st1" d="M1021.513,196.417l10.78,40.232c0.119,0.447,0.523,0.742,0.965,0.742c0.086,0,0.173-0.011,0.26-0.035		c0.533-0.143,0.85-0.691,0.707-1.225l-11.079-41.348l-41.348-11.079c-0.53-0.142-1.082,0.174-1.225,0.707s0.174,1.082,0.707,1.225		L1021.513,196.417z"/>	<path class="st1" d="M739.801,168.202l-29.452,29.452l-39.675-10.631l-10.631-39.675l8.203-8.203l0,0l30.269-30.269l-11.229-41.905		l-41.905-11.229L518.908,182.216c-2.343-1.667-5.606-1.465-7.707,0.636c-2.343,2.343-2.343,6.142,0,8.485s6.142,2.343,8.485,0		c2.101-2.101,2.302-5.364,0.636-7.707L645.978,57.974l39.675,10.631l10.631,39.675l-8.202,8.202l-0.001,0.001l-30.269,30.269		l11.229,41.905l41.905,11.229l30.269-30.269c0.391-0.391,0.391-1.023,0-1.414S740.191,167.812,739.801,168.202z"/>	<path class="st1" d="M649.007,212.028l-40.537,40.537l14.578,54.404l-29.778,29.778l11.229,41.906l34.783,9.32		c-0.238,1.788,0.307,3.661,1.681,5.036c2.343,2.343,6.142,2.343,8.485,0s2.343-6.142,0-8.485s-6.142-2.343-8.485,0		c-0.461,0.461-0.804,0.988-1.084,1.539l-33.748-9.043L595.5,337.345l29.044-29.044l40.232,10.78		c0.051,0.014,0.102,0.004,0.153,0.01l13.752,3.685l40.537-40.537l-14.838-55.374L649.007,212.028z M678.084,320.546l-53.144-14.24		l-14.24-53.144l38.904-38.904l53.144,14.24l14.24,53.144L678.084,320.546z"/>	<path class="st1" d="M688.005,243.95c-0.143-0.534-0.69-0.85-1.225-0.707c-0.533,0.143-0.85,0.691-0.707,1.225l8.489,31.684		c0.119,0.447,0.523,0.742,0.965,0.742c0.086,0,0.173-0.011,0.26-0.035c0.533-0.143,0.85-0.691,0.707-1.225L688.005,243.95z"/>	<path class="st1" d="M633.126,258.654c-0.143-0.534-0.691-0.849-1.225-0.707c-0.533,0.143-0.85,0.691-0.707,1.225l8.489,31.684		c0.119,0.447,0.523,0.742,0.965,0.742c0.086,0,0.173-0.011,0.26-0.035c0.533-0.143,0.85-0.691,0.707-1.225L633.126,258.654z"/>	<path class="st1" d="M1041.117,149.388l40.536-40.537l-14.837-55.374l-55.375-14.837l-40.536,40.537l14.837,55.375		L1041.117,149.388z M1012.039,40.87l53.145,14.24l14.239,53.144l-38.903,38.904l-53.145-14.24l-14.239-53.144L1012.039,40.87z"/>	<path class="st1" d="M1056.998,102.762c0.119,0.447,0.523,0.742,0.965,0.742c0.086,0,0.173-0.011,0.26-0.035		c0.533-0.143,0.85-0.691,0.707-1.225l-8.49-31.684c-0.142-0.533-0.69-0.849-1.225-0.707c-0.533,0.143-0.85,0.691-0.707,1.225		L1056.998,102.762z"/>	<path class="st1" d="M1002.119,117.466c0.119,0.447,0.523,0.742,0.965,0.742c0.086,0,0.173-0.011,0.26-0.035		c0.533-0.143,0.85-0.691,0.707-1.225l-8.49-31.684c-0.143-0.534-0.691-0.851-1.225-0.707c-0.533,0.143-0.85,0.691-0.707,1.225		L1002.119,117.466z"/>	<path class="st1" d="M878.604,243.527c-0.391-0.391-1.023-0.391-1.414,0l-29.452,29.452l-39.675-10.631l-9.746-36.373		c0.317-0.18,0.622-0.387,0.892-0.657c1.611-1.611,1.611-4.224,0-5.835c-1.611-1.611-4.224-1.611-5.835,0s-1.611,4.224,0,5.835		c0.831,0.831,1.929,1.225,3.018,1.199l10.039,37.464l41.905,11.229l30.269-30.269C878.995,244.55,878.995,243.917,878.604,243.527z		"/>	<path class="st1" d="M1066.243,395.008l-29.452,29.452l-39.675-10.631l-10.78-40.232c-0.143-0.534-0.692-0.849-1.225-0.707		c-0.533,0.143-0.85,0.691-0.707,1.225l11.079,41.348l41.905,11.229l30.269-30.269c0.391-0.391,0.391-1.023,0-1.414		S1066.634,394.617,1066.243,395.008z"/>	<path class="st1" d="M794.799,327.14l-28.141-105.024c-0.143-0.534-0.691-0.85-1.225-0.707s-0.85,0.691-0.707,1.225l28.145,105.036		c-0.327,0.182-0.642,0.394-0.92,0.672c-1.611,1.611-1.611,4.224,0,5.835s4.224,1.611,5.835,0s1.611-4.224,0-5.835		C796.962,327.519,795.878,327.122,794.799,327.14z"/>	<path class="st1" d="M1098.769,399.968c-2.117,2.117-2.302,5.413-0.593,7.76l-51.013,51.011l-74.831-20.051l-10.025-37.416		l-10.025-37.416l111.193-111.193l-20.648-77.062l-77.062-20.648l-56.006,56.005c-0.391,0.391-0.391,1.023,0,1.414		s1.023,0.391,1.414,0l55.189-55.188l74.831,20.051l20.051,74.832L950.051,363.259l10.324,38.531l10.175,37.973l0,0l0.149,0.558		l77.062,20.648l51.839-51.838c2.339,1.624,5.57,1.406,7.654-0.679c2.343-2.343,2.343-6.142,0-8.485		S1101.112,397.624,1098.769,399.968z"/>	<circle class="st1" cx="663.844" cy="267.403" r="6"/>	<path class="st1" d="M769.652,148.251c2.101-2.101,2.302-5.364,0.636-7.707l62.905-62.905l39.675,10.631l10.631,39.675		l-26.631,26.631c-1.585-0.95-3.666-0.755-5.032,0.611c-1.611,1.611-1.611,4.224,0,5.835s4.224,1.611,5.835,0		c1.366-1.366,1.561-3.447,0.611-5.032l27.447-27.447L874.5,86.638l-41.905-11.229l-63.722,63.721		c-2.343-1.667-5.606-1.465-7.707,0.636c-2.343,2.343-2.343,6.142,0,8.485C763.509,150.594,767.308,150.594,769.652,148.251z"/>	<path class="st1" d="M1075.369,188.267c-0.143-0.534-0.691-0.851-1.225-0.707c-0.533,0.143-0.85,0.691-0.707,1.225l20.2,75.389		l-43.618,43.618c-0.391,0.391-0.391,1.023,0,1.414c0.195,0.195,0.451,0.293,0.707,0.293s0.512-0.098,0.707-0.293l44.435-44.435		L1075.369,188.267z"/>	<path class="st1" d="M651.17,74.003c-0.391-0.391-1.023-0.391-1.414,0l-17.2,17.2l6.445,24.054l19.594,5.25		c-0.034,1.098,0.358,2.207,1.196,3.045c1.611,1.611,4.224,1.611,5.835,0s1.611-4.224,0-5.835s-4.224-1.611-5.835,0		c-0.263,0.263-0.468,0.56-0.645,0.868l-18.512-4.96l-5.848-21.823l16.384-16.384C651.56,75.026,651.56,74.394,651.17,74.003z"/>	<path class="st1" d="M850.762,248.359c0.195,0.195,0.451,0.293,0.707,0.293s0.512-0.098,0.707-0.293l54.784-54.784		c0.391-0.391,0.391-1.023,0-1.414s-1.023-0.391-1.414,0l-54.784,54.784C850.371,247.335,850.371,247.968,850.762,248.359z"/>	<path class="st1" d="M929.971,215.172c-0.391-0.391-1.023-0.391-1.414,0l-54.784,54.784c-0.391,0.391-0.391,1.023,0,1.414		c0.195,0.195,0.451,0.293,0.707,0.293s0.512-0.098,0.707-0.293l54.784-54.784C930.361,216.195,930.361,215.562,929.971,215.172z"/>	<path class="st1" d="M913.345,397.03l-19.237-71.794l90.558-90.558c2.343,1.667,5.606,1.465,7.707-0.636		c2.343-2.343,2.343-6.142,0-8.485s-6.142-2.343-8.485,0c-2.101,2.101-2.302,5.364-0.636,7.707l-91.374,91.374l19.557,72.988		c-0.269,0.166-0.527,0.355-0.761,0.588c-1.611,1.611-1.611,4.224,0,5.835s4.224,1.611,5.835,0s1.611-4.224,0-5.835		C915.641,397.346,914.482,396.962,913.345,397.03z"/>	<path class="st1" d="M914.709,53.683c2.056-2.056,2.306-5.231,0.754-7.562l26.111-26.111l-5.163-19.269		c-0.143-0.534-0.691-0.849-1.225-0.707c-0.533,0.143-0.85,0.691-0.707,1.225l4.864,18.153L914.075,44.68		c-2.352-1.785-5.706-1.629-7.852,0.517c-2.343,2.343-2.343,6.142,0,8.485C908.567,56.026,912.366,56.026,914.709,53.683z"/>	<circle class="st1" cx="1068.791" cy="170.848" r="6"/>	<circle class="st1" cx="854.753" cy="106.629" r="4.126"/>	<circle class="st1" cx="854.753" cy="206.405" r="4.126"/>	<path class="st1" d="M512.361,117.008c1.611-1.611,1.611-4.224,0-5.835c-0.804-0.804-1.856-1.206-2.91-1.208L499.707,73.6		l29.044-29.044l40.232,10.78c0.005,0.001,0.01,0,0.016,0.001l41.211,11.042l30.269-30.269c0.391-0.391,0.391-1.023,0-1.414		s-1.023-0.391-1.414,0l-29.452,29.452l-40.233-10.78c-0.005-0.001-0.01,0-0.016-0.001l-41.211-11.042l-30.677,30.677l10.038,37.463		c-0.353,0.188-0.692,0.411-0.989,0.709c-1.611,1.611-1.611,4.224,0,5.835S510.75,118.62,512.361,117.008z"/>	<path class="st1" d="M753.709,0.293l-41.066,41.066c-2.343-1.667-5.606-1.465-7.707,0.636c-2.343,2.343-2.343,6.142,0,8.485		s6.142,2.343,8.485,0c2.101-2.101,2.302-5.364,0.636-7.707l41.066-41.066c0.391-0.391,0.391-1.023,0-1.414		S754.1-0.098,753.709,0.293z"/></g></svg>