<?xml version="1.0" encoding="utf-8"?><svg version="1.1" id="Layer_1" xmlns="http://www.w3.org/2000/svg" xmlns:xlink="http://www.w3.org/1999/xlink" x="0px" y="0px"	 viewBox="0 0 1224 792" style="enable-background:new 0 0 1224 792;" xml:space="preserve"><style type="text/css">	.st0{opacity:0.08;fill:#0077b6;enable-background:new    ;}</style><g>	<path class="st0" d="M1175.49,687.4c-2,0-3.6,1.6-3.6,3.6c0,0.5,0.1,0.9,0.2,1.3l-21.6,11.9c-1.3-2-3.5-3.3-6.1-3.3		c-1,0-1.9,0.2-2.8,0.5l-21.8-44.1c4.5-2.4,7.6-7.2,7.6-12.7c0-8-6.5-14.5-14.5-14.5s-14.5,6.5-14.5,14.5c0,1.6,0.3,3.1,0.7,4.5		l-64.9,23.6c-2.1-5.3-7.3-9.1-13.4-9.1c-4.2,0-8,1.8-10.7,4.7l-48.1-41.1c0.9-1.2,1.4-2.7,1.4-4.3c0-4-3.2-7.2-7.2-7.2		s-7.2,3.2-7.2,7.2s3.2,7.2,7.2,7.2c2,0,3.8-0.8,5.2-2.2l48,41.1c-2,2.5-3.2,5.6-3.2,9c0,2.7,0.7,5.1,2,7.3l-24.3,15.3		c-2.6-3.8-7-6.3-12-6.3c-5.6,0-10.5,3.2-12.9,7.9l-30.5-14.3c0.3-0.8,0.5-1.7,0.5-2.6c0-1-0.2-2-0.6-2.9l36-18.5		c1.3,2.1,3.6,3.5,6.2,3.5c4,0,7.2-3.2,7.2-7.2s-3.2-7.2-7.2-7.2s-7.2,3.2-7.2,7.2c0,1,0.2,2,0.6,2.9l-36,18.5		c-1.3-2.1-3.6-3.5-6.2-3.5c-1.4,0-2.7,0.4-3.8,1.1l-18.3-25.5c3.4-2.6,5.7-6.8,5.7-11.5c0-7.8-6.2-14.2-14-14.4v-24.4		c3.8-0.3,6.7-3.4,6.7-7.2c0-4-3.2-7.2-7.2-7.2s-7.2,3.2-7.2,7.2c0,3.8,3,7,6.7,7.2v24.4c-7.8,0.3-14,6.6-14,14.4		c0,8,6.5,14.5,14.5,14.5c3,0,5.7-0.9,8-2.4l18.3,25.5c-1.6,1.3-2.6,3.3-2.6,5.6c0,1.8,0.7,3.5,1.8,4.8l-13.8,13.9		c-2.6-2.4-6-3.9-9.8-3.9c-4.7,0-8.9,2.3-11.6,5.8l-39.2-27.4c0.7-1.1,1-2.4,1-3.7c0-4-3.2-7.2-7.2-7.2c-2.8,0-5.2,1.6-6.4,3.9		l-20.6-8.8c0.3-0.7,0.4-1.5,0.4-2.4c0-4-3.2-7.2-7.2-7.2c-0.5,0-1.1,0.1-1.6,0.2l-20.8-70.8c2.8-1,4.7-3.7,4.7-6.8		c0-4-3.2-7.2-7.2-7.2s-7.2,3.2-7.2,7.2c0,3.3,2.2,6,5.2,6.9l-6.1,27.2c-0.4-0.1-0.7-0.1-1.1-0.1c-3.5,0-6.5,2.5-7.1,5.9l-44.6-5.5		c0-0.1,0-0.3,0-0.4c0-3.8-3-7-6.7-7.2v-34.1c7.8-0.3,14-6.6,14-14.4c0-7.1-5.1-13-11.9-14.2l4.1-27.3c0.2,0,0.4,0,0.6,0		c4,0,7.2-3.2,7.2-7.2s-3.2-7.2-7.2-7.2s-7.2,3.2-7.2,7.2c0,3.5,2.4,6.4,5.7,7.1l-4.1,27.3c-0.5-0.1-1.1-0.1-1.6-0.1		c-8,0-14.5,6.5-14.5,14.5c0,7.8,6.2,14.2,14,14.4v34.1c-3.8,0.3-6.7,3.4-6.7,7.2c0,0.6,0.1,1.2,0.2,1.8l-22.6,7.6		c-2.1-5.5-7.3-9.4-13.5-9.4c-1.8,0-3.6,0.4-5.2,1l-21.4-50.3c2.3-1.2,4-3.6,4-6.4c0-4-3.2-7.2-7.2-7.2s-7.2,3.2-7.2,7.2		c0,1.1,0.2,2.1,0.7,3l-25.5,14c-0.7-0.9-1.7-1.5-2.9-1.5c-2,0-3.6,1.6-3.6,3.6s1.6,3.6,3.6,3.6s3.6-1.6,3.6-3.6		c0-0.5-0.1-0.9-0.2-1.3l25.5-14c1.3,2,3.5,3.3,6.1,3.3c0.8,0,1.6-0.1,2.4-0.4l21.4,50.3c-4.9,2.3-8.4,7.3-8.4,13.1		c0,2.2,0.5,4.3,1.4,6.2l-29.6,15.4c-1.3-2.1-3.6-3.5-6.2-3.5c-4,0-7.2,3.2-7.2,7.2c0,1.9,0.7,3.5,1.8,4.8l-12.1,12.3		c-0.6-0.4-1.3-0.7-2.1-0.7c-2,0-3.6,1.6-3.6,3.6s1.6,3.6,3.6,3.6s3.6-1.6,3.6-3.6c0-0.8-0.3-1.6-0.8-2.2l12.1-12.3		c1.3,1.1,2.9,1.7,4.7,1.7c1.4,0,2.7-0.4,3.8-1.1l10.6,14.8c-0.7,0.7-1.1,1.6-1.1,2.6c0,2,1.6,3.6,3.6,3.6s3.6-1.6,3.6-3.6		s-1.6-3.6-3.6-3.6c-0.6,0-1.2,0.2-1.7,0.4l-10.6-14.9c1.6-1.3,2.6-3.3,2.6-5.6c0-1-0.2-2-0.6-2.9l29.3-15.3		c2.5,4.4,7.2,7.4,12.6,7.4c8,0,14.5-6.5,14.5-14.5c0-1.4-0.2-2.8-0.6-4.1l22.6-7.6c1.1,2.6,3.7,4.5,6.7,4.5c1.3,0,2.5-0.4,3.6-1		l16.9,25.4c-3.7,2.6-6,6.9-6,11.7c0,8,6.5,14.5,14.5,14.5s14.5-6.5,14.5-14.5s-6.5-14.5-14.5-14.5c-2.8,0-5.4,0.8-7.6,2.2		l-16.9-25.4c1.4-1.1,2.3-2.6,2.7-4.3l44.6,5.5c0,0.1,0,0.3,0,0.4c0,4,3.2,7.2,7.2,7.2s7.2-3.2,7.2-7.2c0-3.3-2.2-6-5.2-6.9		l6.1-27.2c0.4,0.1,0.7,0.1,1.1,0.1c0.5,0,1.1-0.1,1.6-0.2l20.8,70.8c-2.8,1-4.7,3.7-4.7,6.8c0,4,3.2,7.2,7.2,7.2		c2.8,0,5.2-1.6,6.4-3.9l20.6,8.8c-0.3,0.7-0.4,1.5-0.4,2.4c0,2.5,1.2,4.6,3.1,5.9l-12.8,21.2c-0.4-0.2-0.9-0.3-1.4-0.3		c-2,0-3.6,1.6-3.6,3.6s1.6,3.6,3.6,3.6s3.6-1.6,3.6-3.6c0-1.1-0.5-2.1-1.3-2.8l12.8-21.2c1,0.5,2.1,0.8,3.3,0.8		c2.3,0,4.3-1.1,5.6-2.7l39.2,27.4c-1.5,2.3-2.3,5-2.3,7.9c0,8,6.5,14.5,14.5,14.5s14.5-6.5,14.5-14.5c0-3.8-1.5-7.3-3.9-9.9		l13.8-13.9c1.3,1.1,2.9,1.8,4.7,1.8c2.7,0,5.1-1.5,6.3-3.7l30.5,14.3c-0.7,1.7-1.2,3.7-1.2,5.7c0,8,6.5,14.5,14.5,14.5		s14.5-6.5,14.5-14.5c0-2.7-0.7-5.1-2-7.3l24.3-15.3c2.6,3.8,7,6.3,12,6.3c1.8,0,3.5-0.3,5.1-1l11.6,27.7c-2.4,1.2-4,3.6-4,6.5		c0,4,3.2,7.2,7.2,7.2s7.2-3.2,7.2-7.2s-3.2-7.2-7.2-7.2c-0.8,0-1.6,0.1-2.3,0.4l-11.8-27.8c5-2.3,8.4-7.3,8.4-13.1		c0-1.6-0.3-3.1-0.7-4.5l64.9-23.6c2.1,5.3,7.3,9.1,13.4,9.1c2.1,0,4.1-0.5,6-1.3l21.8,44.1c-2.1,1.3-3.6,3.6-3.6,6.2		c0,4,3.2,7.2,7.2,7.2c1.5,0,2.9-0.5,4.1-1.2l17.2,21.9c-0.6,0.7-1,1.5-1,2.5c0,2,1.6,3.6,3.6,3.6s3.6-1.6,3.6-3.6s-1.6-3.6-3.6-3.6		c-0.7,0-1.3,0.2-1.8,0.5l-17.2-21.9c1.5-1.3,2.4-3.2,2.4-5.4c0-1.1-0.2-2.1-0.7-3l21.7-11.9c0.7,0.9,1.7,1.5,2.9,1.5		c2,0,3.6-1.6,3.6-3.6S1177.49,687.4,1175.49,687.4z"/>	<path class="st0" d="M1102.09,578.9l11.7-59.4c0.3,0,0.6,0.1,0.9,0.1c4,0,7.2-3.2,7.2-7.2s-3.2-7.2-7.2-7.2s-7.2,3.2-7.2,7.2		c0,3.3,2.3,6.2,5.4,7l-11.7,59.4c-0.3,0-0.6-0.1-0.9-0.1c-3.9,0-7.1,3.1-7.2,7l-52.2,2.1c-0.6-7.5-6.8-13.4-14.4-13.4		c-6.1,0-11.4,3.8-13.5,9.2l-31.2-10.9c0.4-1.4,0.7-2.8,0.7-4.3c0-8-6.5-14.5-14.5-14.5s-14.5,6.5-14.5,14.5s6.5,14.5,14.5,14.5		c6.1,0,11.4-3.8,13.5-9.2l31.2,10.9c-0.4,1.4-0.7,2.8-0.7,4.3c0,8,6.5,14.5,14.5,14.5c8,0,14.5-6.5,14.5-14.5c0,0,0,0,0-0.1		l52.2-2.1c0.4,3.6,3.5,6.5,7.2,6.5c4,0,7.2-3.2,7.2-7.2c0-1.1-0.2-2.1-0.7-3l40.2-21.7c2.5,4.3,7.2,7.2,12.5,7.2		c8,0,14.5-6.5,14.5-14.5s-6.5-14.5-14.5-14.5s-14.5,6.5-14.5,14.5c0,2.3,0.6,4.5,1.5,6.4l-40.2,21.7		C1105.29,580.5,1103.79,579.4,1102.09,578.9z"/></g></svg>