<?xml version="1.0" encoding="utf-8"?><svg version="1.1" id="Layer_1" xmlns="http://www.w3.org/2000/svg" xmlns:xlink="http://www.w3.org/1999/xlink" x="0px" y="0px"	 viewBox="0 0 1224 792" style="enable-background:new 0 0 1224 792;" xml:space="preserve"><style type="text/css">	.st0{opacity:0.08;fill:#0077b6;enable-background:new    ;}</style><g>	<polygon class="st0" points="291.2,309 381.4,327.3 351.9,241.1 	"/>	<polygon class="st0" points="237.8,319.3 265.7,275.6 213.8,272.9 	"/>	<polygon class="st0" points="334.7,152.9 324.8,177.6 276.3,171.3 280.4,181.4 252.4,190.1 272.8,205.8 281.5,183.9 299.7,227.3 		310.3,213.6 308.8,217.8 371.4,208.4 396.7,234.3 410.1,184.7 367.7,195.5 	"/>	<polygon class="st0" points="266.2,113.3 350.5,152.6 350.8,144.6 406.3,142.5 403.5,144.6 445.4,163.2 443,141.3 461.9,140.6 		458.3,126.5 463,133.4 483.7,103.4 453.8,109.4 451.7,101.4 463.8,83.7 436.7,78.3 443.7,95.2 351,143 354.1,83 	"/>	<polygon class="st0" points="141.5,368.1 158.2,348.8 129.5,345.2 140.5,367.4 96.3,342.4 84,434.5 156.8,376.8 	"/>	<polygon class="st0" points="177.7,160.6 238.5,227.1 260.4,124.9 232.4,137.1 235.9,131.9 213.3,130.3 219.4,142.7 	"/>	<polygon class="st0" points="264.1,303.3 239.4,322.4 266.7,337.7 	"/>	<polygon class="st0" points="269,225.2 286.5,235.1 284.8,212.9 	"/>	<polygon class="st0" points="335.9,224.5 335.2,246.8 354.8,236.4 	"/>	<polygon class="st0" points="170.6,256 199.6,267.6 192.6,233.9 	"/>	<polygon class="st0" points="319.9,161.1 297.5,132 283.6,166.5 	"/>	<polygon class="st0" points="247.6,122.1 260.4,99.4 302.7,93.1 267.2,47.2 252.4,84.2 237.1,82.2 	"/>	<polygon class="st0" points="213.8,279.8 183.1,275.8 193.5,315.8 	"/>	<polygon class="st0" points="146,315.6 130.6,312.2 136.1,328.5 	"/>	<polygon class="st0" points="166,323.3 170.7,337.4 183.8,324.8 	"/>	<polygon class="st0" points="223.2,336.5 229,352.8 238.9,340 	"/>	<polygon class="st0" points="165.2,194.8 180.6,189.8 169.7,178.1 	"/>	<polygon class="st0" points="212.3,318.2 179.8,340.5 218.7,334.2 	"/>	<polygon class="st0" points="131.8,259 129.5,276 168.8,272.5 	"/>	<polygon class="st0" points="681.7,117.4 636.1,108.9 641.2,124.2 632.5,124.6 640.3,136.2 643.3,131.2 651.1,155 	"/>	<polygon class="st0" points="804.1,159.3 834.7,121.8 826.1,120.1 831.5,117.1 810.8,106.7 810.2,117.1 789.1,113.3 	"/>	<polygon class="st0" points="816.9,151.3 832.6,160.2 831.9,143.7 	"/>	<polygon class="st0" points="850.3,140.9 847.9,157.6 864.2,150 	"/>	<polygon class="st0" points="729.1,141.1 724.6,138 748.8,136.6 747.7,152.7 769.8,139.9 761.3,135.7 795,133.6 773.5,88.6 		786.9,64.4 753.6,75 757,90.7 717.8,133.4 715.4,131.9 714.7,136.9 713,138.8 714.4,138.7 713,148.6 	"/>	<polygon class="st0" points="676.3,132.7 677.3,147.9 688.8,139.7 	"/>	<polygon class="st0" points="860.6,128 845.8,122.1 846.7,135.2 	"/>	<polygon class="st0" points="694.2,117.1 694.9,130.1 709,122.8 	"/>	<polygon class="st0" points="700.3,147.2 707.2,133.6 691.1,133.3 	"/>	<polygon class="st0" points="594.4,99 593.9,94.7 580,107 563.5,115.9 565,87 527.3,100.9 533.9,105.8 514.6,142 523.1,141.8 		518.4,146 540.9,152 539.5,141.6 561,141.4 546.1,114.8 554.4,120.9 551.3,122.7 588,172 619.1,104.6 629.7,108.9 628.8,92.1 		622.7,96.4 630.7,79.2 	"/>	<polygon class="st0" points="665.5,94.1 711.9,93.6 704.1,79.5 712.4,77.6 702.5,67.5 700.6,73.3 688.3,51.4 	"/>	<polygon class="st0" points="433.2,190.8 445.8,166.3 418.3,164.4 	"/>	<polygon class="st0" points="509.2,103.7 513,119.9 526.4,109.3 	"/>	<polygon class="st0" points="494.6,109.3 480.2,119.9 495.5,126.1 	"/>	<polygon class="st0" points="663.9,63.4 654.4,73.5 667.9,78 	"/>	<polygon class="st0" points="487.8,140.7 503.7,143.5 500.2,131 	"/>	<polygon class="st0" points="637.7,94 653.3,96.8 650,84.2 	"/>	<polygon class="st0" points="454.8,178.8 468.4,183.3 464.5,168.7 	"/>	<polygon class="st0" points="466.8,164.7 498.6,150.3 463.7,150 	"/>	<polygon class="st0" points="473.2,95 503.8,78.2 493.7,66.7 	"/>	<polygon class="st0" points="641.5,68.4 637.3,83 653.2,80.2 	"/>	<polygon class="st0" points="93.5,140.4 99.5,184.4 129.7,158 105.5,146.3 112.3,139.3 111.4,142.8 135.4,134 124.8,126.1 		138.4,111.7 138.4,112.2 154.6,104.6 140.1,95.7 138.7,109.1 89.5,111.2 105.5,146.3 	"/>	<polygon class="st0" points="165.7,66.2 163.3,80.2 176.8,76.8 	"/>	<polygon class="st0" points="181.9,71.9 189.9,59 175.6,59.4 	"/>	<polygon class="st0" points="143.4,82.3 132.8,85.1 140.3,92.6 	"/>	<polygon class="st0" points="176.3,57.5 165.7,56.9 170.4,66.7 	"/>	<polygon class="st0" points="138.4,94.5 122.2,93.6 129.4,108.6 	"/>	<polygon class="st0" points="156.8,78 146.7,90.5 161.5,94 	"/>	<polygon class="st0" points="855.2,76.9 854.7,92.2 866.8,85.1 	"/>	<polygon class="st0" points="843.2,79 832.9,88.9 847.7,92.4 	"/>	<polygon class="st0" points="848.6,70.3 841.4,78.3 852.2,80.6 	"/>	<polygon class="st0" points="104.7,481.1 186.7,475.9 160.1,420.5 	"/>	<polygon class="st0" points="170,403.1 220.5,420.8 208.8,368.8 	"/>	<polygon class="st0" points="261.7,365.2 255.4,346.6 244.4,360.5 	"/>	<polygon class="st0" points="179.3,379.3 173.3,349.5 153.7,368.8 	"/>	<polygon class="st0" points="319.5,241.1 269.8,253.6 306.2,290.4 	"/>	<polygon class="st0" points="276.3,403.6 289.5,417 257.5,410.9 272.4,457 298,425.7 299.4,426.9 300.6,422.5 303,419.4 		301.5,419.2 307.9,395.6 	"/>	<polygon class="st0" points="231.2,457 249.1,447.9 232.4,437.2 	"/>	<polygon class="st0" points="285,320.3 290,356.5 313.8,342.8 	"/>	<polygon class="st0" points="268.8,390 254.2,375.3 242.9,394.9 268.8,392.5 268.6,402 315.5,375.1 269,348.3 	"/>	<polygon class="st0" points="170,420.6 179.4,432.6 184.3,419.4 	"/></g></svg>