<?xml version="1.0" encoding="utf-8"?><svg version="1.1" id="Layer_1" xmlns="http://www.w3.org/2000/svg" xmlns:xlink="http://www.w3.org/1999/xlink" x="0px" y="0px"	 viewBox="0 0 1224 792" style="enable-background:new 0 0 1224 792;" xml:space="preserve"><style type="text/css">	.st0{opacity:0.08;fill:#0077b6;enable-background:new    ;}</style><g>	<polygon class="st0" points="902.2,632.25 952.1,597.35 897.3,570.95 	"/>	<polygon class="st0" points="1082.5,495.55 1060.6,517.85 1010.7,489.25 1010.7,501.95 976.4,498.85 991.5,524.85 1010.7,504.95 		1010.9,560.55 1028.7,550.35 1025,554.05 1103.7,573.85 	"/>	<polygon class="st0" points="1026.1,421.65 1099.8,502.35 1135.2,428.55 	"/>	<polygon class="st0" points="1140.9,620.45 1060,621.45 1061.4,598.95 964.8,645.35 1044.5,698.95 1058.8,738.75 	"/>	<polygon class="st0" points="944.5,532.55 1014.6,431.65 978.7,432.05 984.8,428.15 960.9,416.15 961.9,432.25 908.6,432.85 	"/>	<polygon class="st0" points="925.3,665.35 938,626.95 902.4,636.55 	"/>	<polygon class="st0" points="993,563.05 1001.3,538.05 978.5,544.45 	"/>	<polygon class="st0" points="1066.7,595.15 1051.6,573.85 1040.6,597.55 	"/>	<polygon class="st0" points="891.8,519.25 857.9,533.35 884.1,559.15 	"/>	<polygon class="st0" points="1074.9,416.15 1056.9,350.35 1024.2,383.85 1008.5,374.65 1001.8,422.85 1026.1,403.85 	"/>	<polygon class="st0" points="1021,487.25 1062.8,497.85 1051.4,456.15 	"/>	<polygon class="st0" points="855.7,608.55 894.1,578.75 862.4,560.55 	"/>	<polygon class="st0" points="773.1,611.45 774.9,640.65 738.4,593.45 683.2,687.85 788.4,658.25 775.8,641.85 802.5,628.45 	"/>	<polygon class="st0" points="787.8,596.35 804.4,586.95 789,576.35 	"/>	<polygon class="st0" points="822.6,604.35 821.3,621.65 841.1,613.95 	"/>	<polygon class="st0" points="877.5,664.55 894.1,655.15 878.7,644.55 	"/>	<polygon class="st0" points="892,448.65 879.6,464.35 898.6,465.95 	"/>	<polygon class="st0" points="874.7,640.05 875.1,619.85 829.7,629.05 	"/>	<polygon class="st0" points="814.6,518.85 804.4,536.45 848.5,550.55 	"/></g></svg>