<?xml version="1.0" encoding="utf-8"?><svg version="1.1" id="Layer_1" xmlns="http://www.w3.org/2000/svg" xmlns:xlink="http://www.w3.org/1999/xlink" x="0px" y="0px"	 viewBox="0 0 1224 792" style="enable-background:new 0 0 1224 792;" xml:space="preserve"><style type="text/css">	.st0{opacity:0.09;fill:#0077b6;enable-background:new    ;}</style><path class="st0" d="M1125.362,558.067c4.141-0.268,8.338-0.446,12.607-0.509c28.296,4.288,57.318,12.002,85.289,23.167l0.742-1.857	c-23.983-9.573-48.744-16.616-73.173-21.152c21.985,0.83,45.83,4.715,72.49,13.469l0.623-1.9	c-32.216-10.578-60.345-14.123-86.026-13.738c-0.137-0.021-0.274-0.041-0.411-0.061c23.404-4.091,50.765-3.661,85.856,6.149	l0.539-1.926c-38.42-10.74-67.647-10.357-92.544-5.091c-0.829-0.11-1.656-0.213-2.484-0.317	c23.254-9.113,52.328-12.514,94.521-2.221l0.475-1.943c-44.854-10.94-75.047-6.599-99.147,3.668	c-1.097-0.125-2.193-0.248-3.286-0.362c22.691-14.202,52.986-21.542,101.985-10.919l0.424-1.955	c-51.356-11.13-82.438-2.805-105.683,12.548c-1.209-0.115-2.414-0.221-3.619-0.324c4.292-3.767,8.94-7.24,14.064-10.297	c23.84-14.223,54.86-17.343,94.834-9.532l0.383-1.963c-40.479-7.905-71.96-4.708-96.241,9.777	c-5.818,3.471-11.016,7.46-15.782,11.793c-1.33-0.102-2.657-0.198-3.982-0.285c4.421-5.11,9.324-9.843,14.912-14.016	c23.865-17.821,56.812-22.683,100.727-14.866l0.35-1.969c-44.485-7.919-77.94-2.938-102.272,15.232	c-6.141,4.586-11.478,9.808-16.237,15.461c-1.383-0.08-2.762-0.152-4.137-0.215c4.412-6.463,9.455-12.458,15.367-17.772	c23.945-21.523,58.925-28.165,106.942-20.299l0.323-1.975c-70.469-11.539-104.479,9.416-124.912,39.95	c-50.698-1.982-96.068,7.823-124.773,29.325c-13.319,9.977-22.543,22.173-27.465,36.084c-5.178,5.249-9.528,10.789-12.979,16.605	c-6.776,4.754-12.959,9.869-18.398,15.382c-8.017,3.363-15.92,6.912-23.707,10.737c-0.823,0.404-1.678,0.845-2.548,1.304	c-4.738,0.706-9.541,1.4-14.435,2.085c-5.256,0.735-10.388,1.958-15.389,3.577c-0.567-0.036-1.121-0.066-1.691-0.103	c-9.323-0.606-18.537,0.021-27.602,1.831c-10.386-1.261-20.54-1.269-30.425-0.052c-29.97-4.434-57.494,0.132-82.073,13.676	c-59.484,32.777-81.672,107.872-81.889,108.627l1.922,0.553c0.215-0.746,22.166-75.047,80.932-107.429	c22.287-12.279,47.056-17.053,73.92-14.309c-9.977,1.863-19.663,5-29.007,9.447c-18.972,9.027-36.584,23.354-52.349,42.584	c-26.795,32.686-39.138,68.751-39.259,69.111l1.895,0.639c0.121-0.357,12.367-36.121,38.946-68.524	c15.575-18.988,32.954-33.124,51.653-42.017c11.287-5.367,23.083-8.802,35.3-10.335c4.594,0.688,9.246,1.589,13.956,2.705	c-7.136,2.64-14.16,6.038-21.044,10.223c-16.494,10.03-32.234,24.477-46.782,42.939c-24.733,31.39-37.635,63.998-37.763,64.324	l1.863,0.729c0.126-0.323,12.938-32.694,37.501-63.854c14.397-18.264,29.956-32.544,46.242-42.443	c7.665-4.659,15.502-8.344,23.477-11.054c1.883,0.486,3.772,0.995,5.673,1.549c3.823,1.113,7.574,2.181,11.266,3.211	c-22.267,13.94-40.768,34.459-54.114,52.302c-22.502,30.087-35.616,59.227-35.746,59.518l1.826,0.815	c0.129-0.29,13.168-29.256,35.545-59.167c13.534-18.091,32.403-38.971,55.098-52.746c6.993,1.929,13.755,3.708,20.295,5.338	c-12.871,11.989-27.58,28.568-43.645,51.53c-20.016,28.609-32.827,53.935-32.954,54.188l1.787,0.898	c0.126-0.251,12.884-25.468,32.821-53.962c16.382-23.413,31.32-40.13,44.307-52.081c8.19,2.012,16.031,3.786,23.55,5.33	c-34.039,47.221-65.88,99.091-66.278,99.741l1.705,1.045c0.4-0.653,32.54-53.005,66.724-100.347	c9.45,1.899,18.383,3.423,26.858,4.586c-23.106,54.76-58.584,94.079-59.027,94.565l1.477,1.348	c0.447-0.489,36.348-40.268,59.6-95.633c9.838,1.294,19.045,2.085,27.714,2.398c-4.23,25.461-13.445,44.849-22.024,58.224	c-14.473,22.563-30.284,33.401-30.442,33.508l1.119,1.658c0.161-0.109,16.257-11.124,30.952-34.001	c8.745-13.614,18.143-33.369,22.413-59.322c4.266,0.118,8.404,0.121,12.416,0.003c30.227-0.883,54.772-8.374,79.588-24.293	c20.771-13.324,30.239-39.373,40.265-66.95c0.275-0.756,0.55-1.513,0.825-2.27c0.81-1.637,1.62-3.283,2.433-4.936	c1.669-3.394,3.352-6.804,5.069-10.205c2.859-4.233,5.77-8.471,8.802-12.638c3.199-3.25,6.471-6.45,9.877-9.539	c3.53-2.232,7.15-4.386,10.904-6.416C1117.417,560.208,1121.336,559.078,1125.362,558.067z M1034.969,655.95	c-25.229,14.379-49.089,21.933-77.368,24.492c-3.963,0.359-8.031,0.617-12.212,0.778c0.271-4.267,0.396-8.675,0.363-13.219	c33.617-3.84,61.818-12.519,90.754-27.012c16.517-8.273,27.802-22.284,38.615-37.877c-0.155,0.424-0.31,0.849-0.464,1.273	C1064.08,625.75,1053.442,645.423,1034.969,655.95z M859.449,668.935c5.421,0.34,10.695,0.618,15.837,0.836	c-2.347,1.665-4.787,3.493-7.326,5.522c-5.597-0.9-11.363-1.902-17.307-3.005C853.536,671.036,856.468,669.912,859.449,668.935z	 M878.583,669.91c6.642,0.251,13.052,0.392,19.268,0.428c-2.073,2.716-4.154,5.48-6.237,8.28c-6.721-0.794-13.701-1.757-20.97-2.896	C873.411,673.56,876.059,671.631,878.583,669.91z M905.306,660.743c-1.964,2.481-3.943,5.02-5.931,7.606	c-5.788-0.017-11.766-0.137-17.924-0.344c2.918-1.881,5.65-3.473,8.188-4.823C894.95,662.389,900.169,661.578,905.306,660.743z	 M927.783,646.29c-0.866,2.419-1.605,4.872-2.191,7.367c-0.126,0.535-0.26,1.067-0.389,1.601c-4.957,0.921-9.982,1.806-15.082,2.663	c1.818-2.251,3.816-4.561,6.078-6.929C920.032,649.384,923.894,647.819,927.783,646.29z M1038.666,574.166	c2.876-0.693,5.75-1.394,8.623-2.094c14.809-3.61,29.771-7.248,45.372-9.986c-1.13,2.06-2.214,4.15-3.26,6.261	c-4.327,1.804-8.6,3.65-12.854,5.492c-12.448,5.389-25.319,10.96-39,15.124c-31.25,9.512-64.422,21.011-91.288,36.801	c0.576-2.55,1.296-5.046,2.146-7.491C967.513,599.086,998.223,583.92,1038.666,574.166z M1109.267,559.59	c-0.833,0.663-1.659,1.332-2.475,2.011c-0.613,0.216-1.224,0.433-1.833,0.653c0.736-0.812,1.491-1.608,2.249-2.403	C1107.893,559.761,1108.579,559.675,1109.267,559.59z M1077.963,595.409c-12.121,17.951-23.995,34.597-42.353,43.791	c-28.65,14.35-56.59,22.962-89.888,26.789c-0.072-4.111-0.276-8.333-0.625-12.667c31.728-6.826,61.259-15.719,91.954-29.035	c17.141-7.436,29.744-19.708,42.495-33.052C1079.01,592.626,1078.484,594.018,1077.963,595.409z M943.725,666.207	c-6.4,0.695-12.988,1.225-19.831,1.579c1.059-3.56,2.043-7.162,2.946-10.8c5.503-1.032,10.927-2.11,16.284-3.245	C943.463,658.006,943.658,662.161,943.725,666.207z M944.844,650.309c-0.334-3.517-0.447-6.968-0.349-10.349	c13.92-5.088,28.185-9.91,42.804-14.852c16.242-5.49,33.038-11.168,50.292-17.525c17.292-6.372,31.777-16.637,45.786-26.564	c0.124-0.088,0.248-0.176,0.372-0.263c-0.778,1.845-1.537,3.698-2.278,5.556c-13.797,14.542-26.938,28.211-45.218,36.142	c-30.472,13.218-59.81,22.063-91.325,28.857C944.897,650.975,944.876,650.646,944.844,650.309z M1085.232,582.351	c0.528-1.268,1.068-2.53,1.614-3.787c0.485-0.342,0.97-0.684,1.455-1.025c-0.677,1.226-1.343,2.458-2.002,3.694	C1085.943,581.605,1085.588,581.978,1085.232,582.351z M1088.422,575.009c0.777-1.71,1.576-3.405,2.397-5.086	c0.835-0.347,1.673-0.69,2.512-1.032c-0.939,1.526-1.857,3.065-2.754,4.617C1089.858,574.007,1089.139,574.507,1088.422,575.009z	 M1094.501,570.817c0.655-1.078,1.33-2.144,2.007-3.207c0.614-0.244,1.227-0.488,1.844-0.729c-0.786,0.962-1.558,1.932-2.323,2.908	C1095.518,570.131,1095.009,570.473,1094.501,570.817z M1092.201,574.818c-0.101,0.137-0.199,0.275-0.299,0.411	c0.064-0.111,0.124-0.224,0.188-0.334C1092.127,574.869,1092.163,574.843,1092.201,574.818z M1102.533,565.277	c-0.326,0.291-0.65,0.582-0.973,0.875c0.208-0.247,0.414-0.496,0.624-0.742C1102.3,565.367,1102.415,565.321,1102.533,565.277z	 M1101.003,563.716c-0.865,0.327-1.731,0.654-2.589,0.988c0.906-1.355,1.836-2.693,2.787-4.015c0.95-0.143,1.906-0.276,2.861-0.411	C1103.023,561.41,1102.002,562.555,1101.003,563.716z M1095.154,565.992c-0.995,0.398-1.985,0.801-2.973,1.206	c0.954-1.872,1.941-3.721,2.964-5.545c1.084-0.183,2.175-0.355,3.266-0.528C1097.294,562.726,1096.21,564.349,1095.154,565.992z	 M1038.129,590.877c13.789-4.197,26.714-9.792,39.213-15.203c3.56-1.541,7.131-3.087,10.738-4.607	c-0.971,2.039-1.91,4.095-2.819,6.167c-1.016,0.718-2.029,1.436-3.042,2.153c-14.542,10.306-28.277,20.04-45.32,26.319	c-17.229,6.349-34.012,12.021-50.241,17.508c-14.363,4.855-28.382,9.597-42.075,14.587c0.184-3.242,0.569-6.416,1.153-9.517	C965.132,616.847,993.781,604.375,1038.129,590.877z M942.549,638.547c-3.758,1.38-7.494,2.779-11.203,4.208	c1.166-2.676,2.499-5.305,4.022-7.877c2.497-1.72,5.188-3.464,8.098-5.234C942.991,632.552,942.686,635.521,942.549,638.547z	 M942.477,640.706c-0.06,3.205,0.06,6.469,0.377,9.792c0.039,0.415,0.066,0.82,0.103,1.233c-5.135,1.09-10.33,2.128-15.598,3.122	c0.059-0.247,0.122-0.493,0.18-0.74c0.702-2.99,1.635-5.921,2.753-8.801C934.324,643.746,938.385,642.213,942.477,640.706z	 M924.681,657.39c-0.892,3.533-1.862,7.031-2.9,10.489c-6.4,0.296-13.017,0.448-19.876,0.462c2.125-2.753,4.24-5.451,6.335-8.077	C913.809,659.343,919.283,658.387,924.681,657.39z M900.361,670.347c7.189,0.007,14.105-0.139,20.795-0.436	c-1.149,3.714-2.373,7.382-3.666,10.995c-7.495-0.416-15.34-1.087-23.582-2.022C896.065,675.994,898.218,673.143,900.361,670.347z	 M923.277,669.817c7.07-0.352,13.877-0.886,20.479-1.598c0.027,4.493-0.101,8.851-0.373,13.069	c-7.545,0.23-15.459,0.144-23.812-0.27C920.879,677.336,922.117,673.601,923.277,669.817z M1112.414,559.702	c0.249-0.19,0.5-0.377,0.75-0.565c0.183-0.02,0.367-0.04,0.55-0.06c-0.323,0.172-0.646,0.343-0.967,0.516	C1112.636,559.629,1112.526,559.666,1112.414,559.702z M1125.683,555.902c-0.226,0.056-0.447,0.117-0.672,0.173	c-0.179,0.012-0.356,0.025-0.535,0.037c0.213-0.093,0.428-0.183,0.642-0.274C1125.307,555.861,1125.494,555.88,1125.683,555.902z	 M1121.123,555.398c-0.835,0.385-1.663,0.776-2.484,1.174c-0.74,0.066-1.484,0.127-2.221,0.199c0.775-0.544,1.558-1.081,2.351-1.609	C1119.552,555.238,1120.337,555.315,1121.123,555.398z M1115.589,554.866c-1.093,0.764-2.169,1.544-3.229,2.337	c-0.962,0.108-1.923,0.219-2.879,0.336c1-0.995,2.021-1.972,3.062-2.933C1113.556,554.687,1114.572,554.776,1115.589,554.866z	 M1109.809,554.399c-1.216,1.16-2.403,2.345-3.563,3.549c-1.137,0.151-2.266,0.314-3.395,0.476c1.09-1.447,2.219-2.865,3.375-4.262	C1107.419,554.235,1108.612,554.313,1109.809,554.399z M1103.739,554.016c-1.271,1.576-2.499,3.184-3.69,4.817	c-1.211,0.185-2.416,0.379-3.618,0.576c1.106-1.892,2.254-3.755,3.45-5.582C1101.163,553.882,1102.45,553.946,1103.739,554.016z	 M975.305,582.742c28.149-21.086,72.565-30.778,122.309-29c-1.282,1.995-2.512,4.025-3.691,6.089	c-16.227,2.779-31.749,6.554-47.107,10.297c-2.872,0.7-5.743,1.4-8.618,2.094c-38.67,9.326-68.564,23.606-88.09,41.647	C955.181,601.985,963.627,591.49,975.305,582.742z M945.253,621.588c-0.517,1.828-0.963,3.683-1.336,5.565	c-2.073,1.256-4.101,2.542-6.09,3.852C940.013,627.773,942.496,624.635,945.253,621.588z M931.605,637.554	c-1.06,2.042-2.021,4.114-2.868,6.217c-2.953,1.152-5.894,2.317-8.816,3.51C923.233,644.137,927.065,640.895,931.605,637.554z	 M911.837,652.848c-1.147,1.278-2.268,2.57-3.333,3.891c-0.447,0.554-0.896,1.116-1.344,1.676c-3.838,0.633-7.724,1.25-11.657,1.856	C900.89,657.682,906.335,655.215,911.837,652.848z M874.852,665.319c3.129-0.438,6.216-0.88,9.28-1.326	c-1.948,1.159-3.99,2.453-6.121,3.891c-4.202-0.163-8.488-0.364-12.877-0.61C868.326,666.45,871.562,665.78,874.852,665.319z	 M854.251,668.667c-2.374,0.908-4.717,1.902-7.026,2.978c-2.272-0.431-4.561-0.873-6.885-1.333c-1.363-0.27-2.719-0.503-4.074-0.732	C842.203,668.752,848.203,668.451,854.251,668.667z M807.128,669.911c5.454-0.323,10.985-0.277,16.59,0.147	c-2.299,0.603-4.588,1.287-6.865,2.047C813.584,671.272,810.343,670.542,807.128,669.911z M823.141,673.814	c-0.904-0.263-1.803-0.511-2.703-0.759c3.156-0.953,6.334-1.742,9.53-2.391c3.305,0.409,6.633,0.944,9.983,1.608	c1.429,0.283,2.846,0.56,4.255,0.832c-2.724,1.367-5.401,2.839-8.026,4.408C831.926,676.336,827.588,675.109,823.141,673.814z	 M838.861,678.252c2.818-1.628,5.693-3.138,8.621-4.523c6.327,1.197,12.459,2.283,18.399,3.255c-2.378,1.96-4.833,4.082-7.363,6.387	C852.201,681.812,845.656,680.109,838.861,678.252z M860.863,683.947c2.638-2.372,5.193-4.548,7.658-6.539	c7.532,1.201,14.767,2.222,21.719,3.06c-2.111,2.852-4.221,5.738-6.325,8.645C876.593,687.625,868.916,685.905,860.863,683.947z	 M886.073,689.543c2.149-2.963,4.304-5.902,6.458-8.806c8.478,0.981,16.546,1.692,24.245,2.132	c-1.382,3.774-2.832,7.49-4.341,11.137C904.183,692.882,895.413,691.4,886.073,689.543z M914.482,694.277	c1.524-3.7,2.988-7.468,4.382-11.296c8.551,0.438,16.651,0.541,24.367,0.312c-0.35,4.612-0.859,9.064-1.517,13.341	C933.29,696.324,924.245,695.55,914.482,694.277z M1034.331,672.703c-24.238,15.548-50.328,25.127-90.606,23.991	c0.659-4.32,1.17-8.813,1.517-13.469c4.294-0.161,8.471-0.423,12.54-0.79c28.578-2.587,52.688-10.219,78.178-24.746	c14.662-8.357,24.436-22.159,33.064-37.983C1060.608,641.934,1051.292,661.823,1034.331,672.703z"/></svg>