<?xml version="1.0" encoding="utf-8"?><svg version="1.1" id="Layer_1" xmlns="http://www.w3.org/2000/svg" xmlns:xlink="http://www.w3.org/1999/xlink" x="0px" y="0px"	 viewBox="0 0 1224 792" style="enable-background:new 0 0 1224 792;" xml:space="preserve"><style type="text/css">	.st0{opacity:0.09;fill:#0077b6;enable-background:new    ;}</style><path class="st0" d="M1082.918,106.638c67.27-31.313,110.354-8.097,128.752,1.817c5.78,3.114,8.962,4.825,10.912,4.027	c0.463-0.191,1.077-0.62,1.372-1.586c0.166-0.542-0.14-1.116-0.682-1.283c-0.545-0.164-1.117,0.14-1.282,0.683	c-0.073,0.237-0.151,0.27-0.19,0.286c-1.048,0.435-4.988-1.689-9.157-3.934c-18.67-10.06-62.391-33.618-130.593-1.871	c-42.053,19.576-76.868,75.962-107.585,125.712c-8.223,13.318-16.319,26.43-24.345,38.513c-5.755-3.445-10.981-7.177-15.721-11.167	c5-9.044,10.093-18.515,15.312-28.22c33.136-61.626,70.694-131.475,118.837-152.9c83.792-37.293,132.476,3.77,148.474,17.264	c3.921,3.307,4.987,4.154,6.051,3.846c0.424-0.125,0.747-0.451,0.88-0.893c0.166-0.542-0.14-1.116-0.682-1.283	c-0.267-0.081-0.535-0.05-0.763,0.066c-0.747-0.425-2.412-1.83-4.162-3.306c-7.863-6.632-24.226-20.433-49.33-27.905	c-31.046-9.24-65.13-5.764-101.303,10.334c-48.786,21.711-86.519,91.888-119.811,153.804c-5.143,9.566-10.163,18.901-15.089,27.818	c-5.478-4.781-10.317-9.9-14.637-15.287c1.846-3.879,3.71-7.804,5.589-11.767c35.374-74.574,75.469-159.098,130.416-182.617	c58.109-24.873,100.654-13.654,126.111,0.136c27.616,14.959,41.681,36.093,41.821,36.304c0.309,0.473,0.946,0.607,1.421,0.297	c0.474-0.311,0.607-0.947,0.297-1.421c-0.142-0.216-14.438-21.723-42.475-36.938c-25.868-14.038-69.071-25.48-127.982-0.265	c-55.662,23.824-95.932,108.722-131.464,183.625c-1.733,3.653-3.451,7.275-5.156,10.857c-16.254-21.035-25.022-45.903-33.601-70.258	c-12.174-34.563-23.675-67.208-56.186-82.18c-9.34-4.301-18.764-5.97-28.394-4.996c-1.971-0.123-3.941-0.129-5.911-0.03	c-2.021-0.243-4.055-0.357-6.099-0.37c-1.996-0.364-4.012-0.625-6.052-0.777c-1.581-0.404-3.18-0.748-4.797-1.029	c-1.846-0.659-3.747-1.242-5.701-1.752c-2.116-0.962-4.298-1.846-6.569-2.63c-1.354-0.728-2.734-1.432-4.152-2.097	c-15.324-10.193-36.097-17.094-64.26-19.475c-82.873-7.002-104.344,78.601-121.584,147.388c-1.498,5.978-2.967,11.831-4.442,17.491	c-6.591-1.235-13.23-2.703-19.944-4.191c-30.912-6.851-62.876-13.935-101.13-2.56c-2.349,0.698-4.661,1.541-6.943,2.493	c-23.497-15.565-51.757-29.395-84.568-41.34c-45.247-16.473-99.192-29.431-160.339-38.514C92.007,119.092,1.913,120.25,1.013,120.26	c-0.567,0.008-1.02,0.475-1.012,1.042c0.009,0.568,0.502,1.023,1.042,1.012c0.896-0.014,90.824-1.167,194.736,14.269	c61.01,9.063,114.821,21.987,159.937,38.412c32.147,11.704,59.892,25.213,83.03,40.389c-3.012,1.372-5.97,2.944-8.875,4.704	c-30.108-13.851-65.529-24.029-104.324-35.167c-22.186-6.369-45.128-12.956-68.536-20.681	C130.671,122.547,2.265,127.617,0.983,127.671c-0.566,0.025-1.005,0.504-0.981,1.071c0.025,0.566,0.522,0.996,1.07,0.981	c1.281-0.053,129.308-5.109,255.296,36.469c23.448,7.738,46.408,14.33,68.614,20.704c38.182,10.961,73.089,20.987,102.798,34.49	c-2.815,1.801-5.581,3.777-8.307,5.885c-13.511-3.475-27.991-6.357-43.384-9.419c-36.881-7.334-78.683-15.646-123.499-35.677	c-64.586-28.867-129.554-40.135-172.682-44.503c-46.733-4.734-78.633-2.614-78.951-2.591c-0.566,0.039-0.992,0.53-0.953,1.096	c0.04,0.566,0.532,1.001,1.096,0.953c1.262-0.088,127.522-8.113,250.652,46.921c45.027,20.125,86.95,28.461,123.937,35.817	c14.785,2.94,28.714,5.719,41.743,9.011c-2.586,2.078-5.135,4.276-7.653,6.575c-5.361-0.267-10.875-0.469-16.575-0.676	c-41.943-1.518-89.482-3.237-145.047-34.661c-63.182-35.732-127.022-49.496-169.451-54.752c-45.981-5.695-77.459-2.9-77.771-2.872	c-0.565,0.052-0.981,0.553-0.928,1.116c0.052,0.565,0.548,0.978,1.116,0.928c0.31-0.028,31.567-2.803,77.329,2.865	c42.245,5.233,105.803,18.936,168.693,54.502c56.002,31.671,103.807,33.4,145.984,34.926c4.984,0.181,9.822,0.358,14.541,0.578	c-2.354,2.215-4.682,4.511-6.987,6.872c-1.201,0.199-2.405,0.401-3.614,0.603c-43.058,7.198-91.862,15.36-153.357-26.823	c-61.855-42.429-124.559-58.702-166.268-64.881c-45.206-6.698-76.223-3.31-76.53-3.275c-0.564,0.064-0.968,0.573-0.905,1.136	c0.064,0.563,0.571,0.969,1.136,0.905c0.306-0.034,31.112-3.393,76.07,3.277c41.477,6.153,103.828,22.342,165.333,64.532	c37.72,25.872,70.669,33.021,100.459,33.019c19.318,0,37.311-3.008,54.399-5.864c0.295-0.049,0.587-0.098,0.882-0.147	c-2.088,2.193-4.157,4.433-6.213,6.707c-20.953,8.281-42.664,16.508-67.025,16.794c-28.773,0.334-56.861-10.868-85.797-34.257	c-60.625-49.007-122.183-67.793-163.146-74.924c-44.407-7.73-74.913-3.807-75.216-3.766c-0.562,0.075-0.957,0.593-0.881,1.154	c0.076,0.563,0.59,0.957,1.154,0.881c0.3-0.041,30.491-3.922,74.59,3.754c40.725,7.089,101.924,25.769,162.208,74.498	c62.447,50.478,109.597,35.51,151.061,19.275c-1.739,1.962-3.466,3.944-5.187,5.935c-41.624,26.579-85.373,50.54-149.048-8.862	c-59.499-55.508-119.901-76.813-160.094-84.912c-43.587-8.782-73.526-4.358-73.823-4.311c-0.561,0.086-0.945,0.61-0.859,1.171	c0.085,0.561,0.61,0.949,1.171,0.859c0.296-0.044,29.953-4.415,73.203,4.314c39.907,8.055,99.889,29.233,159.001,84.38	c30.23,28.199,58.885,40.263,87.599,36.879c21.087-2.485,40.079-12.819,58.294-24.208c-1.136,1.332-2.269,2.665-3.399,3.997	c-18.944,16.973-38.621,33.26-60.425,38.173c-27.14,6.112-54.989-6.447-85.141-38.4c-58.471-61.962-117.708-85.788-157.105-94.863	c-42.737-9.844-72.067-4.937-72.358-4.886c-0.559,0.098-0.933,0.63-0.836,1.188c0.098,0.559,0.627,0.934,1.188,0.836	c0.288-0.05,29.294-4.889,71.654,4.89c39.092,9.024,97.884,32.7,155.963,94.249c27.905,29.573,51.715,40.52,73.014,40.517	c24.096-0.003,44.971-14.024,64.888-30.947c-23.055,26.844-45.566,50.116-73.053,50.116c-0.034,0-0.073,0-0.107,0	c-21.191-0.046-43.347-14.162-67.731-43.155C168.3,221.432,110.235,195.087,71.656,185.03c-41.867-10.913-70.542-5.527-70.827-5.473	c-0.557,0.109-0.919,0.648-0.811,1.205c0.109,0.557,0.646,0.918,1.205,0.811c0.281-0.054,28.593-5.351,70.039,5.477	c38.259,9.995,95.86,36.172,152.999,104.111c24.797,29.483,47.464,43.84,69.298,43.887c0.039,0,0.073,0,0.111,0	c31.511-0.002,56.228-29.128,82.391-59.962c0.432-0.509,0.865-1.02,1.298-1.529c2.103-1.885,4.2-3.779,6.293-5.671	c3.24-2.929,6.508-5.883,9.804-8.8c5.791-3.714,11.472-7.306,17.132-10.602c6.231-2.305,12.366-4.365,18.466-5.962	c6.914-0.549,13.667-0.659,20.258-0.051c2.963,0.737,5.885,1.57,8.756,2.545c3.363,1.142,6.497,2.196,9.478,3.167	c5.677,3.3,10.584,5.96,15.005,8.112c4.98,3.842,9.517,6.979,13.766,9.517c16.034,14.681,29.066,20.56,39.584,17.906	c16.796-4.236,25.807-29.474,34.293-61.5c0.053-0.137,0.107-0.273,0.159-0.411c0.007-0.012,0.014-0.025,0.021-0.037	c0.076-0.091,0.151-0.186,0.226-0.277c0.202-0.094,0.405-0.193,0.607-0.289c0.079,0,0.158-0.001,0.237-0.001	c24.855,4.41,49.135,5.078,74.504-9.57c22.704-13.109,44.049-37.167,64.69-60.435c21.824-24.601,42.942-48.401,65.22-60.078	c4.68,5.718,8.591,12.129,11.747,19.243c12.918,29.125,12.284,66.8,11.671,103.237c-0.783,46.462-1.521,90.347,23.317,118.534	c6.795,7.712,13.591,11.496,20.69,11.496c0.951,0,1.906-0.068,2.868-0.203c4.724-0.664,9.416-3.002,14.106-6.754	c0.927,0.104,1.859,0.162,2.793,0.162c1.229,0,2.465-0.089,3.708-0.268c5.06-0.726,10.056-2.932,15.026-6.385	c0.587,0.032,1.176,0.048,1.766,0.048c1.527,0,3.065-0.109,4.609-0.325c5.356-0.75,10.657-2.837,15.924-6.026	c0.356,0.009,0.712,0.027,1.068,0.027c1.813,0,3.635-0.118,5.466-0.354c5.812-0.75,11.531-2.704,17.187-5.632	c0.249,0.003,0.496,0.017,0.744,0.017c7.914,0,15.924-1.717,24.071-5.138c0.723,0.022,1.446,0.043,2.165,0.043	c8.419-0.001,16.606-1.475,24.602-4.078c2.367,0.164,4.736,0.261,7.106,0.261c7.222,0,14.462-0.771,21.74-2.297	c6.834,0.955,13.628,1.452,20.389,1.452c3.656,0,7.303-0.156,10.943-0.435c38.317,9.459,71.601,8.408,99.479-3.229	c39.062-16.306,67.629-53.257,84.908-109.828c0.166-0.542-0.14-1.116-0.682-1.283c-0.545-0.166-1.117,0.141-1.282,0.683	c-17.092,55.957-45.264,92.474-83.735,108.532c-26.044,10.872-56.929,12.353-92.34,4.509c5.975-0.725,11.933-1.821,17.878-3.296	c35.87-8.901,66.464-30.373,91.045-47.626c36.35-25.512,59.135-42.808,69.115-75.484c0.166-0.542-0.14-1.116-0.682-1.283	c-0.54-0.167-1.117,0.14-1.282,0.683c-9.805,32.096-31.258,48.381-68.331,74.402c-24.443,17.155-54.861,38.505-90.36,47.314	c-7.828,1.942-15.676,3.215-23.562,3.836c-4.669-1.159-9.42-2.486-14.24-3.961c27.323-10.085,51.95-28.976,75.807-47.282	c13.49-10.352,26.231-20.129,39.133-28.123c15.52-9.617,28.644-16.12,40.222-21.859c22.553-11.178,37.453-18.562,43.295-37.692	c0.166-0.542-0.14-1.116-0.682-1.283c-0.545-0.166-1.117,0.14-1.282,0.683c-5.585,18.282-19.384,25.121-42.244,36.451	c-11.044,5.473-24.789,12.285-40.391,21.952c-12.99,8.049-25.771,17.857-39.302,28.241c-24.483,18.788-49.781,38.194-77.837,47.905	c-5.039-1.604-10.17-3.397-15.372-5.34c19.748-12.621,38.532-30.47,57.065-48.097c20.114-19.132,40.914-38.915,62.138-50.873	c27.967-15.757,49.966-20.842,66.028-24.556c17.485-4.042,28.04-6.482,31.878-19.05c0.166-0.542-0.14-1.116-0.682-1.283	c-0.545-0.167-1.117,0.14-1.282,0.683c-3.492,11.434-13.612,13.773-30.377,17.649c-16.185,3.741-38.348,8.864-66.575,24.767	c-21.446,12.083-42.339,31.955-62.545,51.174c-18.727,17.812-37.968,36.107-58.03,48.693c-5.211-1.989-10.505-4.152-15.874-6.478	c14.593-13.471,28.942-30.153,43.824-47.46c25.066-29.15,50.987-59.293,79.253-74.054c40.18-20.983,68.981-20.245,88.041-19.75	c13.042,0.334,21.665,0.558,24.248-7.904c0.166-0.542-0.14-1.116-0.682-1.283c-0.545-0.165-1.117,0.141-1.282,0.683	c-2.128,6.967-9.266,6.781-22.232,6.45c-18.097-0.465-48.391-1.244-89.043,19.983c-28.617,14.944-54.667,45.239-79.86,74.537	c-14.893,17.319-29.512,34.318-44.317,47.902c-5.357-2.354-10.783-4.855-16.294-7.541c11.032-13.389,22.076-28.698,33.346-44.33	c28.899-40.086,58.782-81.537,93.7-98.666c53.083-26.043,89.264-16.004,108.703-10.609c9.785,2.715,16.25,4.51,17.961-1.091	c0.166-0.542-0.14-1.116-0.682-1.283c-0.545-0.166-1.117,0.14-1.282,0.683c-1.08,3.536-5.515,2.468-15.449-0.289	c-19.702-5.467-56.372-15.642-110.156,10.743c-35.379,17.356-65.415,59.019-94.462,99.309	c-11.355,15.75-22.478,31.172-33.565,44.595c-3.94-1.941-7.911-3.95-11.93-6.059c-1.554-0.815-3.062-1.656-4.544-2.51	c8.031-12.09,16.118-25.185,24.33-38.485C1006.779,182.062,1041.423,125.953,1082.918,106.638z M948.985,270.703	c-2.357,3.522-4.708,6.952-7.053,10.268c-0.681-0.381-1.361-0.755-2.043-1.145c-4.691-2.683-8.997-5.582-12.995-8.649	c2.161-3.764,4.337-7.63,6.53-11.581C938.139,263.57,943.31,267.286,948.985,270.703z M964.218,304.465	c-4.415-0.985-8.832-2.255-13.256-3.826c2.801-2.675,5.594-5.534,8.383-8.549c4.789,2.168,9.551,4.136,14.283,5.863	C970.507,300.322,967.372,302.5,964.218,304.465z M975.922,298.755c4.405,1.546,8.789,2.911,13.15,4.073	c-3.3,1.496-6.581,2.784-9.846,3.855c-4.059-0.296-8.114-0.837-12.171-1.627C970.032,303.126,972.986,301.018,975.922,298.755z	 M952.511,310.676c-3.867-0.127-7.719-0.571-11.563-1.324c2.791-2.18,5.573-4.563,8.345-7.137c4.136,1.51,8.266,2.772,12.395,3.777	C958.649,307.769,955.591,309.34,952.511,310.676z M927.193,315.933c-3.574-0.098-7.185-0.558-10.84-1.427	c2.685-2.457,5.364-5.16,8.04-8.079c3.959,1.675,7.864,2.993,11.719,3.991C933.151,312.523,930.18,314.367,927.193,315.933z	 M903.563,321.813c-3.439-0.142-6.854-0.748-10.259-1.798c2.593-2.753,5.185-5.799,7.785-9.112c3.697,1.91,7.404,3.421,11.124,4.553	C909.333,317.896,906.451,320.026,903.563,321.813z M881.275,328.071c-3.393-0.262-6.757-1.102-10.111-2.531	c2.527-3.105,5.061-6.557,7.607-10.32c3.615,2.402,7.224,4.294,10.843,5.696C886.832,323.68,884.055,326.082,881.275,328.071z	 M497.507,264.129c-0.971-0.893-1.95-1.815-2.944-2.775c0.334,0.116,0.668,0.233,0.998,0.343	c32.486,10.814,51.504-3.27,67.863-28.399c-8.062,18.455-16.927,32.411-29.133,37.443c-8.558,3.529-18.379,2.555-30.022-2.975	C502.091,266.731,499.844,265.52,497.507,264.129z M406.882,247.679c1.228-0.987,2.461-1.954,3.696-2.907	c1.078-0.165,2.153-0.326,3.225-0.481c-1.363,0.755-2.726,1.533-4.087,2.325C408.773,246.965,407.828,247.319,406.882,247.679z	 M909.287,296.013c-0.826-0.534-1.65-1.082-2.476-1.645c-3.894-2.659-7.459-5.514-10.76-8.524c2.171-4.092,4.357-8.336,6.562-12.706	c4.118,4.181,8.697,8.106,13.78,11.749C914.009,288.764,911.642,292.48,909.287,296.013z M918.061,286.071	c1.367,0.941,2.76,1.867,4.201,2.766c3.226,2.014,6.443,3.857,9.655,5.568c-2.675,3.378-5.347,6.568-8.018,9.54	c-4.298-1.887-8.593-4.17-12.89-6.847C913.349,293.592,915.698,289.909,918.061,286.071z M771.662,83.293	c-0.149-0.147-0.297-0.295-0.447-0.441c0.075-0.005,0.15-0.011,0.225-0.016c0.176,0.128,0.351,0.258,0.526,0.388	C771.864,83.247,771.763,83.271,771.662,83.293z M491.001,257.823c-1.334-1.355-2.689-2.765-4.065-4.233	c0.267,0.056,0.534,0.115,0.801,0.169c7.178,1.462,13.804,2.159,19.981,2.159c23.364-0.002,40.222-9.969,55.478-26.037	c-4.777,7.621-9.723,14.267-15.158,19.593c-14.306,14.02-30.774,17.283-51.829,10.275	C494.518,259.185,492.788,258.545,491.001,257.823z M475.984,248.36c-1.365-1.144-2.759-2.259-4.168-3.361	c1.526,0.168,3.043,0.327,4.558,0.476c1.515,1.503,2.998,3.015,4.44,4.541c-1.403-0.371-2.821-0.767-4.267-1.188	C476.359,248.671,476.174,248.52,475.984,248.36z M459.546,241.507c-1.968-0.98-3.961-1.926-5.993-2.823	c1.833-0.143,3.63-0.257,5.407-0.356c1.867,1.225,3.707,2.473,5.511,3.755c-0.198-0.024-0.39-0.046-0.589-0.07	C462.46,241.843,460.997,241.675,459.546,241.507z M439.082,238.269c-1.932-0.319-3.886-0.605-5.859-0.862	c0.05-0.018,0.1-0.04,0.15-0.059c1.95-0.728,3.926-1.397,5.915-2.032c1.971,0.682,3.917,1.389,5.835,2.124	c-1.257,0.148-2.519,0.305-3.788,0.482C440.582,238.026,439.833,238.146,439.082,238.269z M442.615,234.299	c2.27-0.661,4.559-1.267,6.867-1.811c2.229,1.289,4.422,2.605,6.572,3.96c-2.148,0.144-4.329,0.31-6.546,0.522	C447.242,236.043,444.952,235.144,442.615,234.299z M852.635,184.839c-7.344-36.758-14.281-71.476-40.84-91.801	c-4.454-3.409-8.971-6.037-13.579-7.993c5.893,1.413,11.709,3.913,17.519,7.678c27.836,18.037,36.192,51.643,45.039,87.222	c8.15,32.779,16.54,66.439,40.337,91.617c-2.222,4.42-4.426,8.711-6.611,12.845C867.376,258.554,859.893,221.155,852.635,184.839z	 M477.296,243.498c-1.93-1.9-3.917-3.78-5.962-5.641c0.244-0.005,0.501-0.013,0.744-0.018c37.698-0.825,64.916-2.899,90.19-12.773	c-22.176,15.385-46.346,21.775-82.182,18.694C479.155,243.679,478.226,243.587,477.296,243.498z M763.093,78.703	c-14.779,0.008-31.009,3.879-48.94,9.743c-38.106,12.428-65.189,44.448-89.084,72.699l-3.401,4.018	c-16.647,19.627-30.673,35.721-44.624,48.162c6.693-8.849,13.369-18.703,20.486-29.219c6.277-9.276,12.77-18.868,20.008-28.907	c22.329-30.971,49.715-64.74,92.26-73.423c21.603-4.425,38.878-5.553,53.193-3.154C763.024,78.648,763.058,78.676,763.093,78.703z	 M623.233,166.491l3.402-4.02c23.719-28.042,50.602-59.825,88.154-72.073c18.798-6.149,35.678-10.079,50.914-9.577	c0.173,0.146,0.345,0.291,0.517,0.438c-14.288,1.892-29.826,7.726-47.301,15.886c-29.293,13.646-53.272,39.06-74.427,61.483	c-5.889,6.243-11.452,12.139-17.022,17.701c-18.1,18.076-33.96,30.579-49.862,39.268	C591.896,202.972,606.209,186.564,623.233,166.491z M709.384,79.764c-43.268,8.83-70.958,42.947-93.515,74.234	c-7.256,10.064-13.757,19.668-20.043,28.957c-6.953,10.273-13.4,19.798-19.767,28.321c3.091-5.905,6.191-12.094,9.381-18.466	c7.962-15.905,16.197-32.353,26.392-48.906c18.703-30.576,46.172-66.251,92.976-70.766c21.533-2.088,38.939-1.277,53.263,2.728	C744.587,74.462,728.674,75.812,709.384,79.764z M472.032,235.784c-0.953,0.021-1.935,0.046-2.925,0.073	c-2.186-1.936-4.437-3.85-6.747-5.742c0.625-0.084,1.248-0.179,1.874-0.255c19.907-2.41,37.717-3.1,53.428-3.707	c15.931-0.616,30.609-1.184,44.876-3.443C537.183,232.854,509.958,234.954,472.032,235.784z M466.104,235.95	c-2.132,0.072-4.331,0.167-6.585,0.289c-2.323-1.512-4.692-2.984-7.109-4.416c2.38-0.504,4.778-0.937,7.188-1.313	C461.825,232.304,463.993,234.117,466.104,235.95z M462.404,238.151c2.038-0.091,4.03-0.163,5.954-0.219	c1.936,1.727,3.818,3.472,5.653,5.234c-1.776-0.188-3.562-0.386-5.369-0.596C466.607,241.057,464.524,239.588,462.404,238.151z	 M479.576,245.774c0.112,0.01,0.223,0.022,0.335,0.031c36.431,3.132,60.951-3.338,83.419-18.922	c-19.394,21.275-40.609,31.91-75.183,24.863c-1.221-0.249-2.442-0.52-3.668-0.809C482.893,249.2,481.254,247.48,479.576,245.774z	 M628.923,177.783c5.59-5.584,11.164-11.491,17.064-17.745c21.029-22.289,44.863-47.551,73.799-61.031	c18.034-8.419,33.949-14.325,48.506-15.896c0.29,0.267,0.586,0.529,0.872,0.801c-14,3.704-28.896,11.531-45.478,21.947	c-21.565,13.526-40.468,32.719-58.75,51.281c-10.931,11.099-21.255,21.581-31.653,30.357	c-19.272,16.143-36.582,24.821-54.207,29.677C594.96,208.41,610.831,195.852,628.923,177.783z M777.396,84.321	c0.153,0.098,0.302,0.2,0.454,0.299c-0.203,0.063-0.408,0.124-0.611,0.189c-0.153-0.131-0.303-0.266-0.457-0.396	C776.987,84.38,777.191,84.352,777.396,84.321z M783.245,85.346c0.118,0.063,0.238,0.123,0.355,0.187	c-0.181,0.068-0.362,0.132-0.542,0.202c-0.119-0.09-0.238-0.18-0.357-0.269C782.883,85.423,783.065,85.387,783.245,85.346z	 M788.856,85.81c5.768,2.519,11.263,6.059,16.505,10.799c24.051,21.746,29.423,56.883,35.11,94.082	c6.251,40.888,12.713,83.118,45.099,109.854c-2.457,4.205-4.894,8.16-7.315,11.831c-1.501-1.063-3.006-2.214-4.515-3.458	c-32.096-26.473-36.83-70.388-41.409-112.856c-4.142-38.42-8.054-74.709-30.652-98.922c-4.125-4.42-8.531-8.136-13.307-11.189	C788.534,85.902,788.695,85.857,788.856,85.81z M842.5,190.381c-5.744-37.571-11.169-73.059-35.761-95.296	c-4.678-4.229-9.541-7.537-14.603-10.039c6.319,1.917,12.432,5.048,18.412,9.624c25.942,19.854,32.806,54.204,40.074,90.572	c7.361,36.838,14.958,74.774,42.88,101.048c-2.314,4.338-4.607,8.496-6.884,12.448C855.063,272.471,848.675,230.766,842.5,190.381z	 M895.05,287.719c3.261,2.939,6.777,5.732,10.603,8.344c0.834,0.57,1.664,1.109,2.494,1.647c-2.546,3.761-5.079,7.299-7.6,10.586	c-3.383-1.854-6.805-4.058-10.272-6.655c-0.703-0.527-1.378-1.073-2.059-1.614C890.479,296.113,892.757,292.003,895.05,287.719z	 M903.593,271.188c2.111-4.209,4.237-8.53,6.384-12.944c4.233,4.766,8.94,9.282,14.238,13.477	c-2.266,3.926-4.514,7.737-6.747,11.408C912.336,279.438,907.727,275.447,903.593,271.188z M902.099,269.596	c-23.059-24.784-31.312-57.895-39.331-90.145c-8.948-35.984-17.399-69.972-45.915-88.451c-4.116-2.667-8.229-4.713-12.362-6.223	c5.449,1.016,10.913,2.97,16.432,5.993c29.754,16.292,39.607,49.197,50.041,84.034c8.616,28.772,17.45,58.236,37.544,81.765	C906.352,261.012,904.216,265.362,902.099,269.596z M704.611,71.095c-47.706,4.602-75.578,40.756-94.529,71.735	c-10.241,16.627-18.495,33.116-26.478,49.061c-2.693,5.38-5.302,10.583-7.881,15.583c1.169-3.211,2.344-6.478,3.534-9.787	c7.404-20.586,15.796-43.92,26.864-65.072c24.199-46.441,53.976-68.087,93.708-68.124c0.099,0,0.195,0,0.293,0	c20.142,0,37.005,2.492,51,7.621C738.09,69.613,722.791,69.33,704.611,71.095z M517.584,224.1	c-15.751,0.609-33.605,1.3-53.596,3.721c-1.275,0.154-2.545,0.33-3.813,0.519c-2.375-1.899-4.818-3.773-7.319-5.627	c1.178-0.304,2.354-0.59,3.527-0.839c31.478-6.692,58.651-4.457,82.625-2.485c7.507,0.618,14.796,1.215,21.957,1.547	C547.429,222.937,533.289,223.492,517.584,224.1z M457.428,228.789c-2.553,0.434-5.089,0.941-7.606,1.516	c-2.47-1.416-4.991-2.789-7.553-4.133c2.7-1.058,5.393-1.976,8.075-2.755C452.766,225.187,455.127,226.977,457.428,228.789z	 M446.878,231.011c-2.547,0.642-5.071,1.355-7.569,2.14c-2.376-0.813-4.781-1.6-7.229-2.348c2.565-1.329,5.13-2.534,7.691-3.616	C442.182,228.429,444.548,229.705,446.878,231.011z M436.062,234.211c-1.142,0.391-2.279,0.793-3.409,1.214	c-1.242,0.463-2.475,0.959-3.706,1.47c-2.104-0.23-4.233-0.432-6.387-0.611c0.839-0.535,1.679-1.06,2.521-1.569	c1.471-0.889,2.943-1.728,4.416-2.539C431.713,232.831,433.908,233.504,436.062,234.211z M425.09,238.57	c-2.034,0.926-4.06,1.904-6.079,2.938c-1.663,0.212-3.332,0.435-5.011,0.677c1.909-1.408,3.827-2.769,5.753-4.066	C421.553,238.253,423.328,238.406,425.09,238.57z M425.124,240.811c1.37-0.635,2.744-1.235,4.122-1.815	c1.254,0.14,2.5,0.291,3.735,0.452c-1.423,0.318-2.849,0.669-4.273,1.04C427.517,240.584,426.322,240.691,425.124,240.811z	 M445.437,239.47c1.262-0.148,2.517-0.28,3.765-0.403c1.369,0.566,2.727,1.145,4.068,1.745c-1.078-0.115-2.141-0.237-3.231-0.344	c-0.129-0.012-0.261-0.02-0.39-0.032C448.254,240.092,446.85,239.77,445.437,239.47z M467.381,245.709	c-0.91-0.533-1.843-1.031-2.768-1.543c1.089,0.128,2.175,0.258,3.245,0.382c1.184,0.886,2.354,1.787,3.508,2.701	c-0.975-0.308-1.966-0.625-2.974-0.953C468.055,246.1,467.724,245.91,467.381,245.709z M480.491,252.056	c0.974,0.256,1.94,0.499,2.902,0.731c0.914,0.997,1.818,1.967,2.715,2.917c-0.807-0.372-1.627-0.758-2.468-1.166	C482.611,253.742,481.561,252.914,480.491,252.056z M634.606,189.07c10.472-8.838,20.829-19.355,31.794-30.488	c18.198-18.478,37.016-37.584,58.379-50.984c16.887-10.607,31.975-18.498,46.106-21.987c0.356,0.36,0.714,0.721,1.063,1.089	c-13.909,5.52-28.186,15.396-43.484,27.885c-14.513,11.839-28.378,26.208-41.787,40.105c-16.253,16.844-31.606,32.755-47.576,43.982	c-20.49,14.338-39.556,19.243-59.06,20.255C597.768,213.953,615.396,205.162,634.606,189.07z M773.376,85.036	c0.248-0.052,0.493-0.092,0.739-0.142c0.281,0.227,0.57,0.447,0.847,0.678c-0.271,0.096-0.542,0.189-0.813,0.288	C773.894,85.584,773.636,85.309,773.376,85.036z M776.78,87.144c0.323,0.289,0.641,0.583,0.96,0.877	c-0.389,0.185-0.779,0.375-1.17,0.568c-0.299-0.354-0.608-0.701-0.914-1.052C776.032,87.406,776.407,87.268,776.78,87.144z	 M779.06,86.429c0.345-0.102,0.689-0.195,1.034-0.292c0.238,0.168,0.473,0.338,0.709,0.509c-0.344,0.146-0.689,0.295-1.034,0.447	C779.534,86.871,779.299,86.649,779.06,86.429z M782.581,87.987c4.544,3.542,8.662,7.686,12.415,12.479	c20.156,25.741,22.643,64.266,25.049,101.522c2.802,43.407,5.699,88.293,35.776,115.729c4.038,3.684,8.061,6.544,12.1,8.595	c-2.745,3.202-5.476,5.959-8.199,8.212c-6.406-0.944-12.693-4.591-19.052-11.039c-26.865-27.246-27.902-72.243-28.904-115.758	c-0.885-38.425-1.8-78.159-20.223-106.462c-3.048-4.683-6.473-8.914-10.282-12.723C781.701,88.353,782.14,88.166,782.581,87.987z	 M857.205,316.2c-29.464-26.878-32.334-71.343-35.111-114.344c-2.425-37.569-4.933-76.415-25.481-102.657	c-3.592-4.588-7.5-8.604-11.782-12.074c0.319-0.116,0.639-0.232,0.959-0.343c5.215,3.12,9.968,7.027,14.386,11.76	c22.132,23.711,26.008,59.67,30.112,97.74c4.623,42.877,9.402,87.214,42.143,114.22c1.564,1.29,3.125,2.475,4.685,3.577	c-2.626,3.891-5.234,7.44-7.828,10.6C865.265,322.7,861.248,319.889,857.205,316.2z M879.918,313.505	c2.405-3.638,4.822-7.543,7.254-11.686c0.621,0.49,1.231,0.987,1.871,1.467c3.407,2.551,6.816,4.761,10.234,6.646	c-2.702,3.433-5.393,6.575-8.078,9.377C887.436,317.935,883.682,316.004,879.918,313.505z M902.359,309.263	c2.495-3.259,4.995-6.757,7.506-10.462c4.249,2.655,8.435,4.9,12.562,6.759c-2.808,3.039-5.615,5.828-8.424,8.333	C910.172,312.807,906.293,311.279,902.359,309.263z M925.878,304.784c2.626-2.943,5.25-6.087,7.874-9.408	c4.475,2.306,8.937,4.318,13.391,6.038c-2.934,2.686-5.873,5.151-8.823,7.377C934.166,307.821,930.02,306.485,925.878,304.784z	 M948.822,299.85c-4.585-1.725-9.176-3.761-13.782-6.118c2.498-3.215,4.996-6.585,7.498-10.083c4.982,2.745,9.93,5.266,14.843,7.548	C954.531,294.261,951.679,297.154,948.822,299.85z M933.2,292.772c-3.276-1.735-6.559-3.621-9.851-5.676	c-1.446-0.903-2.842-1.833-4.212-2.779c2.227-3.653,4.465-7.44,6.72-11.34c4.008,3.057,8.32,5.95,13.013,8.634	c0.624,0.357,1.245,0.688,1.869,1.038C938.221,286.166,935.709,289.549,933.2,292.772z M931.835,258.23	c-2.212,3.99-4.405,7.891-6.582,11.688c-5.333-4.253-10.059-8.84-14.298-13.69c2.084-4.3,4.185-8.684,6.308-13.135	C921.584,248.419,926.408,253.493,931.835,258.23z M826.11,88.809c31.722,14.608,43.081,46.856,55.107,80.997	c8.39,23.816,17.496,49.635,34.62,71.503c-2.133,4.478-4.246,8.888-6.338,13.214c-19.432-23.14-28.109-52.061-36.569-80.309	c-10.557-35.252-20.528-68.548-51.022-85.245c-3.805-2.084-7.579-3.679-11.336-4.83C815.653,84.857,820.825,86.375,826.11,88.809z	 M694.859,55.834c19.95,1.686,36.841,5.77,50.82,12.306c-12.93-3.831-28.025-5.703-45.558-5.703c-0.097,0-0.199,0-0.296,0	c-40.581,0.037-70.935,22.034-95.527,69.226c-11.132,21.276-19.55,44.68-26.976,65.329c-0.782,2.173-1.557,4.328-2.327,6.461	c0.149-0.593,0.297-1.182,0.446-1.777C592.492,133.642,613.699,48.971,694.859,55.834z M448.518,213.883	c37.743-11.223,69.444-4.197,100.1,2.596c3.544,0.786,7.066,1.564,10.572,2.309c-6.534-0.341-13.184-0.885-20.014-1.447	c-24.114-1.984-51.446-4.232-83.22,2.523c-1.729,0.368-3.467,0.816-5.208,1.3c-2.504-1.817-5.066-3.612-7.692-5.385	C444.857,215.069,446.676,214.431,448.518,213.883z M440.771,216.724c2.546,1.701,5.035,3.421,7.466,5.163	c-2.79,0.864-5.592,1.874-8.398,3.032c-2.526-1.289-5.091-2.55-7.701-3.778C434.97,219.482,437.844,217.996,440.771,216.724z	 M430.014,222.421c2.497,1.161,4.956,2.347,7.376,3.561c-2.705,1.196-5.413,2.525-8.12,3.988c-2.396-0.701-4.826-1.378-7.288-2.032	C424.621,225.952,427.298,224.109,430.014,222.421z M419.933,229.517c2.3,0.599,4.565,1.221,6.807,1.86	c-0.907,0.519-1.815,1.03-2.721,1.578c-1.611,0.974-3.214,2.002-4.809,3.065c-2.152-0.155-4.335-0.289-6.539-0.411	C415.062,233.474,417.482,231.441,419.933,229.517z M410.533,237.548c2,0.103,3.971,0.219,5.926,0.345	c-2.254,1.572-4.493,3.222-6.719,4.93c-1.86,0.287-3.728,0.583-5.608,0.89C406.245,241.595,408.378,239.535,410.533,237.548z	 M406.413,245.427c-1.885,1.501-3.759,3.039-5.624,4.605c-1.444,0.566-2.896,1.139-4.353,1.716c1.738-1.88,3.487-3.734,5.248-5.548	C403.267,245.937,404.844,245.679,406.413,245.427z M395.413,254.361c0.194-0.077,0.386-0.152,0.579-0.229	c-1.263,1.097-2.524,2.201-3.779,3.311c-0.724,0.464-1.451,0.932-2.178,1.399c1.077-1.22,2.159-2.433,3.244-3.636	C393.991,254.923,394.703,254.642,395.413,254.361z M535.399,281.725c-8.37,2.109-18.604-1.718-30.987-11.638	c11.751,5.365,21.793,6.207,30.661,2.553c11.995-4.945,20.782-17.823,28.631-34.943C556.574,261.184,548.36,278.456,535.399,281.725	z M765.208,95.25c-19.236,13.027-37.979,34.153-56.104,54.584c-20.533,23.145-41.765,47.078-64.181,60.019	c-21.075,12.168-41.5,13.515-62.196,10.98c18.924-1.311,37.539-6.472,57.553-20.478c16.132-11.341,31.552-27.32,47.875-44.237	c13.367-13.853,27.19-28.178,41.608-39.939c15.418-12.588,29.764-22.488,43.7-27.842c0.377,0.419,0.742,0.846,1.11,1.273	C771.482,91.239,768.362,93.115,765.208,95.25z M845.869,341.392c-7.416,1.048-14.52-2.431-21.732-10.616	c-24.312-27.59-23.58-71.089-22.805-117.142c0.769-45.681,1.542-92.313-23.506-123.51c0.474-0.232,0.949-0.461,1.423-0.683	c3.942,3.85,7.459,8.16,10.574,12.944c18.104,27.813,19.012,67.25,19.89,105.389c1.011,43.915,2.057,89.326,29.496,117.152	c6.084,6.17,12.146,9.903,18.341,11.287C853.647,339.06,849.758,340.845,845.869,341.392z M866.471,334.534	c-1.325,0.19-2.641,0.256-3.952,0.223c2.421-2.166,4.842-4.698,7.269-7.559c2.927,1.303,5.866,2.181,8.829,2.642	C874.582,332.339,870.54,333.949,866.471,334.534z M887.88,327.871c-1.118,0.157-2.231,0.24-3.341,0.275	c2.393-1.885,4.782-4.055,7.169-6.477c2.89,0.964,5.789,1.616,8.706,1.953C896.251,325.826,892.075,327.284,887.88,327.871z	 M910.36,321.514c-1.013,0.13-2.022,0.21-3.03,0.264c2.415-1.671,4.823-3.564,7.226-5.662c2.975,0.773,5.96,1.31,8.957,1.588	C919.164,319.627,914.785,320.943,910.36,321.514z M931.514,315.872c2.411-1.436,4.81-3.062,7.202-4.83	c3.085,0.687,6.137,1.17,9.16,1.457C942.499,314.404,937.051,315.568,931.514,315.872z M957.269,310.672	c2.369-1.175,4.75-2.488,7.144-3.948c0.044-0.027,0.087-0.055,0.13-0.082c3.124,0.674,6.249,1.213,9.375,1.598	C968.33,309.684,962.785,310.489,957.269,310.672z M984.534,306.933c2.559-0.996,5.099-2.109,7.621-3.32	c3.334,0.823,6.657,1.543,9.968,2.141C996.244,306.659,990.384,307.048,984.534,306.933z M1033.07,306.049	c-6.343,0.198-12.713-0.032-19.121-0.688c2.287-0.603,4.578-1.259,6.874-2.012c0.476-0.156,0.949-0.322,1.422-0.484	C1025.899,304.018,1029.504,305.073,1033.07,306.049z M1018.943,301.786c-3.602,1.138-7.194,2.097-10.776,2.859	c-4.365-0.62-8.748-1.429-13.152-2.445c3.245-1.664,6.464-3.488,9.655-5.456C1009.497,298.569,1014.253,300.247,1018.943,301.786z	 M1002.262,295.83c-3.401,2.056-6.826,3.948-10.277,5.634c-4.689-1.177-9.404-2.583-14.146-4.208	c3.047-2.425,6.076-5.015,9.092-7.746C992.111,291.767,997.226,293.883,1002.262,295.83z M984.874,288.61	c-3.096,2.783-6.202,5.408-9.32,7.856c-4.886-1.746-9.803-3.736-14.752-5.958c2.702-2.974,5.402-6.087,8.101-9.324	C974.302,283.821,979.622,286.289,984.874,288.61z M955.475,274.38c3.884,2.04,7.724,3.981,11.536,5.864	c-2.723,3.257-5.444,6.391-8.166,9.372c-5.004-2.306-10.042-4.846-15.119-7.639c2.336-3.304,4.676-6.717,7.021-10.22	C952.289,272.652,953.858,273.531,955.475,274.38z"/></svg>